<?xml version="1.0" encoding="UTF-8" standalone="no"?><!DOCTYPE svg PUBLIC "-//W3C//DTD SVG 1.1//EN" "http://www.w3.org/Graphics/SVG/1.1/DTD/svg11.dtd"><svg width="100%" height="100%" viewBox="0 0 500 500" version="1.1" xmlns="http://www.w3.org/2000/svg" xmlns:xlink="http://www.w3.org/1999/xlink" xml:space="preserve" xmlns:serif="http://www.serif.com/" style="fill-rule:evenodd;clip-rule:evenodd;stroke-linejoin:round;stroke-miterlimit:2;"><g><rect x="0" y="0" width="500" height="500" style="fill:#fff;fill-rule:nonzero;"/><path d="M282.668,380.992l-134.444,-0c-36.239,-0 -68.775,-23.682 -80.371,-59.244c-0.262,-0.803 -0.52,-1.617 -0.775,-2.442c-10.035,-32.478 -15.484,-70.322 17.867,-120.904c33.351,-50.583 10.473,-98.028 53.353,-115.3c20.464,-8.243 39.085,-7.646 58.27,-7.05c21.014,0.653 42.705,1.306 68.234,-9.658c48.835,-20.973 146.506,-19.739 152.461,65.387c5.956,85.127 -17.866,81.425 -8.338,109.801c9.529,28.376 41.689,146.813 -126.257,139.41Z" style="fill:#e1f2fc;fill-rule:nonzero;"/><path d="M247.498,428.538c0,13.356 -40.527,24.183 -90.519,24.183c-49.993,0 -90.52,-10.827 -90.52,-24.183c-0,-13.356 40.527,-24.183 90.52,-24.183c49.992,0 90.519,10.827 90.519,24.183Z" style="fill:#e1f2fc;fill-rule:nonzero;"/><path d="M65.36,381.184l368.577,-0c0.138,-0 0.25,-0.112 0.25,-0.25c0,-0.139 -0.112,-0.25 -0.25,-0.25l-368.577,-0c-0.138,-0 -0.25,0.111 -0.25,0.25c0,0.138 0.112,0.25 0.25,0.25Z" style="fill:#1d144f;fill-rule:nonzero;"/><path d="M114.842,437.7l75.347,0.08c2.424,0.003 4.392,-1.96 4.394,-4.385l0.082,-74.494l-79.737,-0.086l-0.086,78.885Z" style="fill:#90cbef;fill-rule:nonzero;"/><path d="M114.928,358.813l79.699,0.085l-25.095,-19.997c-1.739,-1.386 -3.905,-2.143 -6.139,-2.145l-66.726,-0.071c-1.66,-0.002 -2.485,1.991 -1.3,3.142l19.561,18.986Z" style="fill:#90cbef;fill-rule:nonzero;"/><path d="M92.516,411.637l-0.249,-68.543c0.006,-5.222 3.396,-6.078 3.396,-6.078l-0.614,1.288c-0.301,0.663 0.328,1.437 0.851,1.947l19.038,18.564l-0.086,78.88l-19.885,-20.137c-1.564,-1.584 -2.443,-3.707 -2.451,-5.921Z" style="fill:#90cbef;fill-rule:nonzero;"/><path d="M137.107,358.589l-18.852,-0.02l-0.004,0c-1.974,0 -3.574,1.599 -3.577,3.573l-0.021,19.907l0.5,0l0.021,-19.907c0.002,-1.698 1.379,-3.073 3.077,-3.073l0.003,0l18.852,0.02l0.001,-0.5Z" style="fill:#fff;fill-rule:nonzero;"/><path d="M114.639,394.639l-0.043,39.734l0.5,0l0.043,-39.733" style="fill:#fff;fill-rule:nonzero;"/><path d="M102.982,347.615l11.669,11.379l0.35,-0.358l-11.67,-11.379" style="fill:#fff;fill-rule:nonzero;"/><path d="M95.326,336.909l-0.616,1.291l-0.001,0.001c-0.07,0.153 -0.101,0.313 -0.101,0.47c0.015,0.714 0.567,1.321 1.005,1.759l5.323,5.189l0.349,-0.357l-5.323,-5.19c-0.42,-0.399 -0.868,-0.983 -0.854,-1.401c0.001,-0.092 0.018,-0.178 0.056,-0.263l-0.227,-0.104l0.225,0.108l0.615,-1.288l-0.451,-0.215Z" style="fill:#fff;fill-rule:nonzero;"/><path d="M301.236,381.328l-104.576,0c-9.359,0 -16.946,-7.587 -16.946,-16.946l0,-229.446c0,-9.359 7.587,-16.946 16.946,-16.946l104.576,-0c9.359,-0 16.946,7.587 16.946,16.946l0,229.446c0,9.359 -7.587,16.946 -16.946,16.946Z" style="fill:#1d144f;fill-rule:nonzero;"/><path d="M302.236,374.801l-106.577,0c-5.491,0 -9.943,-4.452 -9.943,-9.943l0,-230.397c0,-5.492 4.452,-9.943 9.943,-9.943l106.577,0c5.492,0 9.943,4.451 9.943,9.943l-0,230.397c-0,5.491 -4.451,9.943 -9.943,9.943Z" style="fill:#fff;fill-rule:nonzero;"/><path d="M269.974,139.58l-42.052,-0c-5.195,-0 -9.406,-4.211 -9.406,-9.406l0,-8.418c0,-0.276 0.223,-0.499 0.499,-0.499l60.365,-0l0,8.917c0,5.195 -4.211,9.406 -9.406,9.406Z" style="fill:#1d144f;fill-rule:nonzero;"/><path d="M217.162,109.458c0.095,16.629 -13.307,30.188 -29.937,30.284c-16.631,0.096 -30.189,-13.307 -30.285,-29.937c-0.096,-16.63 13.307,-30.188 29.938,-30.284c16.629,-0.096 30.188,13.307 30.284,29.937Z" style="fill:#a7d9f5;fill-rule:nonzero;"/><path d="M209.462,109.025c0.072,12.643 -10.116,22.95 -22.759,23.023c-12.642,0.073 -22.949,-10.116 -23.022,-22.759c-0.073,-12.642 10.116,-22.949 22.758,-23.022c12.643,-0.073 22.95,10.116 23.023,22.758Z" style="fill:#38b9e5;fill-rule:nonzero;"/><path d="M210.114,109.975c0.071,12.473 -9.98,22.642 -22.453,22.714c-12.473,0.072 -22.641,-9.981 -22.713,-22.453c-0.072,-12.472 9.979,-22.641 22.453,-22.714c12.472,-0.071 22.641,9.981 22.713,22.453Z" style="fill:#f36f64;fill-rule:nonzero;"/><path d="M210.114,109.975c0.071,12.473 -9.98,22.642 -22.453,22.714c-12.473,0.072 -22.641,-9.981 -22.713,-22.453c-0.072,-12.472 9.979,-22.641 22.453,-22.714c12.472,-0.071 22.641,9.981 22.713,22.453Z" style="fill:#73c2ec;fill-rule:nonzero;"/><path d="M188.468,116.673l-0.029,-5.067c1.72,0.477 2.983,1.128 2.992,2.531c0.007,1.231 -0.875,2.209 -2.963,2.536Zm-0.082,-14.313l-0.001,-0l0.001,-0Zm-2.318,5.195c-1.663,-0.477 -2.898,-1.1 -2.906,-2.474c-0.007,-1.259 0.846,-2.295 2.877,-2.621l0.029,5.095Zm2.351,0.588l-0.033,-5.778l0.028,-0.001c1.004,0.111 2.045,0.373 3.075,0.783c0.861,0.44 1.444,0.899 1.444,0.899l0.075,-0.179l0.88,-2.085l0.202,-0.479l-1.036,-1.076l-0.494,0.226c-1.267,-0.625 -2.709,-1.112 -4.192,-1.184l-0.019,-3.178l-0.994,-0.791l0.005,0.797l-1.358,0.008l0.019,3.235c-4.464,0.455 -6.567,3.014 -6.55,5.934c0.023,3.979 3.435,4.99 6.617,5.744l0.033,5.726c-2.177,-0.188 -4.329,-1.006 -5.738,-2.143l-1.271,2.899c1.496,1.279 4.221,2.18 7.027,2.335l0.014,2.4l-1.118,0.025l1.122,0.753l2.348,-0.014l-0.019,-3.206c4.492,-0.484 6.624,-3.015 6.607,-5.935c-0.023,-3.979 -3.492,-4.961 -6.674,-5.715Z" style="fill:#38b9e5;fill-rule:nonzero;"/><path d="M190.456,113.357c-0.008,-1.403 -1.272,-2.054 -2.992,-2.531l0.029,5.068c2.089,-0.327 2.97,-1.306 2.963,-2.537Zm-5.364,-6.583l-0.029,-5.096c-2.031,0.326 -2.884,1.362 -2.876,2.622c0.007,1.374 1.242,1.997 2.905,2.474Zm2.419,12.24l0.018,3.207l-2.347,0.014l-0.019,-3.178c-2.806,-0.156 -5.532,-1.057 -7.028,-2.337l1.272,-2.898c1.409,1.137 3.561,1.954 5.739,2.142l-0.034,-5.726c-3.182,-0.754 -6.595,-1.766 -6.618,-5.745c-0.016,-2.921 2.087,-5.481 6.551,-5.935l-0.019,-3.235l2.348,-0.014l0.018,3.178c2.12,0.102 4.27,0.72 5.823,1.712l-1.158,2.898c-1.522,-0.878 -3.128,-1.356 -4.647,-1.519l0.034,5.783c3.182,0.755 6.652,1.737 6.675,5.717c0.017,2.92 -2.116,5.452 -6.608,5.936Z" style="fill:#fff;fill-rule:nonzero;"/><path d="M268.654,81.531c0.061,10.536 -8.432,19.125 -18.967,19.186c-10.536,0.061 -19.126,-8.43 -19.186,-18.966c-0.061,-10.536 8.43,-19.126 18.966,-19.187c10.535,-0.061 19.126,8.431 19.187,18.967Z" style="fill:#a7d9f5;fill-rule:nonzero;"/><path d="M263.776,81.257c0.046,8.01 -6.409,14.54 -14.419,14.586c-8.01,0.046 -14.54,-6.409 -14.586,-14.419c-0.046,-8.01 6.409,-14.54 14.419,-14.586c8.009,-0.046 14.539,6.409 14.586,14.419Z" style="fill:#38b9e5;fill-rule:nonzero;"/><path d="M264.188,81.859c0.046,7.902 -6.322,14.344 -14.224,14.39c-7.903,0.045 -14.345,-6.323 -14.39,-14.225c-0.046,-7.902 6.322,-14.345 14.225,-14.39c7.901,-0.046 14.344,6.323 14.389,14.225Z" style="fill:#f36f64;fill-rule:nonzero;"/><path d="M264.188,81.859c0.046,7.902 -6.322,14.344 -14.224,14.39c-7.903,0.045 -14.345,-6.323 -14.39,-14.225c-0.046,-7.902 6.322,-14.345 14.225,-14.39c7.901,-0.046 14.344,6.323 14.389,14.225Z" style="fill:#73c2ec;fill-rule:nonzero;"/><path d="M250.475,86.102l-0.018,-3.21c1.09,0.302 1.89,0.715 1.895,1.603c0.004,0.78 -0.554,1.4 -1.877,1.607Zm-0.052,-9.068m-1.468,3.291c-1.054,-0.302 -1.836,-0.696 -1.841,-1.567c-0.005,-0.798 0.535,-1.454 1.822,-1.661l0.019,3.228Zm1.489,0.373l-0.021,-3.661l0.018,-0c0.636,0.07 1.295,0.236 1.948,0.496c0.546,0.279 0.915,0.57 0.915,0.57l0.048,-0.114l0.557,-1.321l0.128,-0.304l-0.656,-0.681l-0.314,0.143c-0.802,-0.396 -1.716,-0.705 -2.656,-0.75l-0.011,-2.014l-0.63,-0.501l0.003,0.505l-0.86,0.005l0.012,2.049c-2.828,0.289 -4.161,1.911 -4.15,3.76c0.014,2.521 2.176,3.162 4.192,3.64l0.021,3.627c-1.379,-0.119 -2.742,-0.637 -3.635,-1.357l-0.806,1.836c0.948,0.811 2.674,1.381 4.452,1.48l0.009,1.52l-0.708,0.016l0.711,0.477l1.487,-0.009l-0.012,-2.031c2.846,-0.307 4.197,-1.911 4.186,-3.76c-0.014,-2.521 -2.212,-3.143 -4.228,-3.621Z" style="fill:#38b9e5;fill-rule:nonzero;"/><path d="M251.734,84.001c-0.005,-0.888 -0.805,-1.301 -1.895,-1.603l0.018,3.211c1.323,-0.208 1.882,-0.828 1.877,-1.608Zm-3.398,-4.17l-0.018,-3.229c-1.287,0.207 -1.827,0.863 -1.823,1.661c0.005,0.871 0.788,1.265 1.841,1.568Zm1.532,7.754l0.012,2.032l-1.487,0.009l-0.012,-2.014c-1.778,-0.098 -3.504,-0.669 -4.452,-1.48l0.805,-1.836c0.893,0.72 2.257,1.238 3.636,1.357l-0.021,-3.628c-2.016,-0.478 -4.178,-1.118 -4.193,-3.639c-0.01,-1.851 1.322,-3.473 4.15,-3.761l-0.011,-2.05l1.487,-0.008l0.011,2.013c1.343,0.065 2.706,0.456 3.689,1.085l-0.733,1.836c-0.964,-0.556 -1.982,-0.859 -2.944,-0.962l0.021,3.664c2.016,0.478 4.215,1.1 4.229,3.622c0.011,1.85 -1.34,3.454 -4.187,3.76Z" style="fill:#fff;fill-rule:nonzero;"/><path d="M390.628,267.248l45.918,0c2.242,0 4.059,-1.817 4.059,-4.059l0,-47.433c0,-2.242 -1.817,-4.059 -4.059,-4.059l-45.918,-0c-2.242,-0 -4.059,1.817 -4.059,4.059l0,47.433c0,2.242 1.817,4.059 4.059,4.059Z" style="fill:#90cbef;fill-rule:nonzero;"/><path d="M436.546,211.697l-45.918,-0c-2.242,-0 -4.059,1.817 -4.059,4.059l0,11.936l54.036,-0l0,-11.936c0,-2.242 -1.817,-4.059 -4.059,-4.059Z" style="fill:#4d6bb3;fill-rule:nonzero;"/><path d="M425.728,241.557l7.22,0c0.434,0 0.787,-0.352 0.787,-0.787l-0,-7.22c-0,-0.435 -0.353,-0.787 -0.788,-0.787l-7.219,0c-0.435,0 -0.788,0.352 -0.788,0.787l0,7.22c0,0.435 0.353,0.787 0.788,0.787Z" style="fill:#e1f2fc;fill-rule:nonzero;"/><path d="M415.414,241.557l7.22,0c0.435,0 0.787,-0.352 0.787,-0.787l-0,-7.22c-0,-0.435 -0.352,-0.787 -0.787,-0.787l-7.22,0c-0.435,0 -0.787,0.352 -0.787,0.787l0,7.22c0,0.435 0.352,0.787 0.787,0.787Z" style="fill:#fff;fill-rule:nonzero;"/><path d="M400.732,215.854c-0.994,0 -1.801,-0.806 -1.801,-1.801l-0,-6.377c-0,-0.995 0.807,-1.801 1.801,-1.801c0.995,-0 1.801,0.806 1.801,1.801l-0,6.377c-0,0.995 -0.806,1.801 -1.801,1.801Z" style="fill:#76c3ec;fill-rule:nonzero;"/><path d="M409.849,215.864c-0.995,0 -1.801,-0.806 -1.801,-1.801l0,-6.377c0,-0.995 0.806,-1.801 1.801,-1.801c0.994,0 1.801,0.806 1.801,1.801l-0,6.377c-0,0.995 -0.807,1.801 -1.801,1.801Z" style="fill:#76c3ec;fill-rule:nonzero;"/><path d="M418.542,215.857c-0.994,-0 -1.801,-0.806 -1.801,-1.801l-0,-6.377c-0,-0.995 0.807,-1.801 1.801,-1.801c0.995,-0 1.801,0.806 1.801,1.801l-0,6.377c-0,0.995 -0.806,1.801 -1.801,1.801Z" style="fill:#76c3ec;fill-rule:nonzero;"/><path d="M405.028,241.557l7.22,0c0.435,0 0.787,-0.352 0.787,-0.787l0,-7.22c0,-0.435 -0.352,-0.787 -0.787,-0.787l-7.22,0c-0.435,0 -0.787,0.352 -0.787,0.787l-0,7.22c-0,0.435 0.352,0.787 0.787,0.787Z" style="fill:#e1f2fc;fill-rule:nonzero;"/><path d="M394.714,241.557l7.22,0c0.435,0 0.788,-0.352 0.788,-0.787l-0,-7.22c-0,-0.435 -0.353,-0.787 -0.788,-0.787l-7.219,0c-0.435,0 -0.788,0.352 -0.788,0.787l0,7.22c0,0.435 0.353,0.787 0.787,0.787Z" style="fill:#e1f2fc;fill-rule:nonzero;"/><path d="M425.653,251.348l7.22,0c0.435,0 0.787,-0.353 0.787,-0.788l0,-7.219c0,-0.435 -0.352,-0.788 -0.787,-0.788l-7.22,0c-0.435,0 -0.787,0.353 -0.787,0.788l-0,7.219c-0,0.435 0.352,0.788 0.787,0.788Z" style="fill:#e1f2fc;fill-rule:nonzero;"/><path d="M415.339,251.348l7.22,0c0.435,0 0.788,-0.353 0.788,-0.788l-0,-7.219c-0,-0.435 -0.353,-0.788 -0.788,-0.788l-7.22,0c-0.434,0 -0.787,0.353 -0.787,0.788l0,7.219c0,0.435 0.353,0.788 0.787,0.788Z" style="fill:#fff;fill-rule:nonzero;"/><path d="M404.954,251.348l7.22,0c0.434,0 0.787,-0.353 0.787,-0.788l-0,-7.219c-0,-0.435 -0.353,-0.788 -0.787,-0.788l-7.22,0c-0.435,0 -0.788,0.353 -0.788,0.788l-0,7.219c-0,0.435 0.353,0.788 0.788,0.788Z" style="fill:#e1f2fc;fill-rule:nonzero;"/><path d="M394.64,251.348l7.22,0c0.435,0 0.787,-0.353 0.787,-0.788l0,-7.219c0,-0.435 -0.352,-0.788 -0.787,-0.788l-7.22,0c-0.435,0 -0.787,0.353 -0.787,0.788l-0,7.219c-0,0.435 0.352,0.788 0.787,0.788Z" style="fill:#e1f2fc;fill-rule:nonzero;"/><path d="M425.58,261.222l7.22,0c0.435,0 0.787,-0.353 0.787,-0.788l0,-7.22c0,-0.435 -0.352,-0.787 -0.787,-0.787l-7.22,0c-0.435,0 -0.787,0.352 -0.787,0.787l-0,7.22c-0,0.435 0.352,0.788 0.787,0.788Z" style="fill:#e1f2fc;fill-rule:nonzero;"/><path d="M415.266,261.222l7.22,0c0.435,0 0.788,-0.353 0.788,-0.788l-0,-7.22c-0,-0.435 -0.353,-0.787 -0.788,-0.787l-7.219,0c-0.435,0 -0.788,0.352 -0.788,0.787l0,7.22c0,0.435 0.353,0.788 0.787,0.788Z" style="fill:#fff;fill-rule:nonzero;"/><path d="M404.881,261.222l7.22,0c0.434,0 0.787,-0.353 0.787,-0.788l0,-7.22c0,-0.435 -0.353,-0.787 -0.787,-0.787l-7.22,0c-0.435,0 -0.788,0.352 -0.788,0.787l-0,7.22c-0,0.435 0.353,0.788 0.788,0.788Z" style="fill:#e1f2fc;fill-rule:nonzero;"/><path d="M394.567,261.222l7.22,0c0.435,0 0.787,-0.353 0.787,-0.788l0,-7.22c0,-0.435 -0.352,-0.787 -0.787,-0.787l-7.22,0c-0.435,0 -0.787,0.352 -0.787,0.787l-0,7.22c-0,0.435 0.352,0.788 0.787,0.788Z" style="fill:#e1f2fc;fill-rule:nonzero;"/><path d="M427.256,215.857c-0.994,-0 -1.801,-0.806 -1.801,-1.801l-0,-6.377c-0,-0.995 0.807,-1.801 1.801,-1.801c0.994,-0 1.801,0.806 1.801,1.801l0,6.377c0,0.995 -0.807,1.801 -1.801,1.801Z" style="fill:#76c3ec;fill-rule:nonzero;"/><path d="M350.759,256.547l-32.577,-0l0,-84.054l32.577,0c4.279,0 7.749,3.47 7.749,7.75l-0,68.554c-0,4.28 -3.47,7.75 -7.749,7.75Z" style="fill:#c5e4f8;fill-rule:nonzero;"/><rect x="312.179" y="172.493" width="6.003" height="84.054" style="fill:#494690;fill-rule:nonzero;"/><path d="M312.179,256.547l-93.152,-0c-4.28,-0 -7.75,-3.47 -7.75,-7.75l-0,-68.554c-0,-4.28 3.47,-7.75 7.75,-7.75l93.152,0l-0,84.054Z" style="fill:#d8eefb;fill-rule:nonzero;"/><path d="M347.348,253.854l-131.731,0c-4.28,0 -7.75,-3.469 -7.75,-7.749l0,-68.554c0,-4.28 3.47,-7.75 7.75,-7.75l131.731,-0c4.28,-0 7.75,3.47 7.75,7.75l-0,68.554c-0,4.28 -3.47,7.749 -7.75,7.749Z" style="fill:#90cbef;fill-rule:nonzero;"/><path d="M355.098,177.551c-0,-4.28 -3.47,-7.75 -7.75,-7.75l-131.731,-0c-4.28,-0 -7.75,3.47 -7.75,7.75l0,1.21c16.122,0.732 47.372,6.017 69.169,34c25.088,32.207 58.802,29.058 78.062,21.187l-0,-56.397Z" style="fill:#76c3ec;fill-rule:nonzero;"/><path d="M241.312,216.665l-18.39,0c-1.629,0 -2.95,-1.321 -2.95,-2.95l0,-9.629c0,-1.629 1.321,-2.95 2.95,-2.95l18.39,-0c1.629,-0 2.949,1.321 2.949,2.95l0,9.629c0,1.629 -1.32,2.95 -2.949,2.95Z" style="fill:#fff;fill-rule:nonzero;"/><path d="M344.975,184.811l-26.627,0c-0.674,0 -1.22,-0.547 -1.22,-1.22l-0,-5.126c-0,-0.673 0.546,-1.22 1.22,-1.22l26.627,-0c0.674,-0 1.22,0.547 1.22,1.22l0,5.126c0,0.673 -0.546,1.22 -1.22,1.22Z" style="fill:#1d144f;fill-rule:nonzero;"/><path d="M244.46,229.786l-22.786,0c-1.424,0 -2.579,-1.155 -2.579,-2.579c0,-1.424 1.155,-2.578 2.579,-2.578l22.786,-0c1.424,-0 2.579,1.154 2.579,2.578c0,1.424 -1.155,2.579 -2.579,2.579Z" style="fill:#fff;fill-rule:nonzero;"/><path d="M276.72,229.786l-22.786,0c-1.424,0 -2.579,-1.155 -2.579,-2.579c-0,-1.424 1.155,-2.578 2.579,-2.578l22.786,-0c1.424,-0 2.579,1.154 2.579,2.578c0,1.424 -1.155,2.579 -2.579,2.579Z" style="fill:#fff;fill-rule:nonzero;"/><path d="M309.221,229.786l-22.786,0c-1.424,0 -2.579,-1.155 -2.579,-2.579c-0,-1.424 1.155,-2.578 2.579,-2.578l22.786,-0c1.424,-0 2.578,1.154 2.578,2.578c0,1.424 -1.154,2.579 -2.578,2.579Z" style="fill:#fff;fill-rule:nonzero;"/><path d="M341.48,229.786l-22.785,0c-1.425,0 -2.579,-1.155 -2.579,-2.579c-0,-1.424 1.154,-2.578 2.579,-2.578l22.785,-0c1.425,-0 2.579,1.154 2.579,2.578c-0,1.424 -1.154,2.579 -2.579,2.579Z" style="fill:#fff;fill-rule:nonzero;"/><path d="M251.657,247.179l-29.64,0c-0.865,0 -1.567,-0.702 -1.567,-1.568c-0,-0.865 0.702,-1.567 1.567,-1.567l29.64,0c0.866,0 1.568,0.702 1.568,1.567c0,0.866 -0.702,1.568 -1.568,1.568Z" style="fill:#1d144f;fill-rule:nonzero;"/><path d="M341.4,247.179l-14.625,0c-0.866,0 -1.568,-0.702 -1.568,-1.568c0,-0.865 0.702,-1.567 1.568,-1.567l14.625,0c0.866,0 1.567,0.702 1.567,1.567c0,0.866 -0.701,1.568 -1.567,1.568Z" style="fill:#1d144f;fill-rule:nonzero;"/><g><clipPath id="_clip1"><path d="M241.311,216.665l-18.389,0c-1.629,0 -2.949,-1.321 -2.949,-2.95l0,-9.629c0,-1.629 1.32,-2.95 2.949,-2.95l18.389,-0c1.63,-0 2.95,1.321 2.95,2.95l0,9.629c0,1.629 -1.32,2.95 -2.95,2.95Z"/></clipPath><g clip-path="url(#_clip1)"><path d="M224.206,201.022c1.247,1.6 2.912,4.39 2.91,7.822c-0.001,2.412 -0.813,5.152 -3.195,8.07c-0.087,0.107 -0.071,0.265 0.036,0.352c0.107,0.087 0.264,0.072 0.352,-0.035c2.445,-2.993 3.309,-5.861 3.307,-8.387c-0.001,-3.599 -1.733,-6.48 -3.015,-8.129c-0.085,-0.109 -0.242,-0.128 -0.351,-0.043c-0.109,0.084 -0.128,0.241 -0.044,0.35Z" style="fill:#76c3ec;fill-rule:nonzero;"/><path d="M218.408,209.009l8.911,0l0,-0.5l-8.911,0" style="fill:#76c3ec;fill-rule:nonzero;"/><path d="M238.962,200.715c-1.283,1.649 -3.014,4.53 -3.016,8.129c-0.001,2.526 0.863,5.395 3.308,8.387c0.087,0.107 0.245,0.122 0.352,0.035c0.107,-0.087 0.123,-0.245 0.035,-0.352c-2.381,-2.918 -3.193,-5.658 -3.195,-8.07c-0.001,-3.432 1.664,-6.222 2.91,-7.822c0.085,-0.109 0.066,-0.266 -0.043,-0.35c-0.109,-0.085 -0.266,-0.066 -0.351,0.043Z" style="fill:#76c3ec;fill-rule:nonzero;"/><path d="M245.155,208.509l-8.912,0l-0,0.5l8.912,0" style="fill:#76c3ec;fill-rule:nonzero;"/></g></g><path d="M371.58,115.131c-6.599,-6.921 -7.082,-9.335 3.219,-19.474c10.3,-10.139 8.69,-24.141 8.69,-24.141l-19.787,-0.38l-0,-0.022l-0.567,0.011l-0.568,-0.011l-0,0.022l-19.787,0.38c-0,-0 -1.61,14.002 8.69,24.141c10.301,10.139 9.818,12.553 3.219,19.474c-6.598,6.92 -15.611,13.68 -15.289,26.394l47.469,-0c0.322,-12.714 -8.691,-19.474 -15.289,-26.394Z" style="fill:#fff;fill-rule:nonzero;"/><path d="M387.261,144.972l-48.253,-0c-1.467,-0 -2.656,-1.189 -2.656,-2.656c-0,-1.467 1.189,-2.656 2.656,-2.656l48.253,0c1.467,0 2.656,1.189 2.656,2.656c-0,1.467 -1.189,2.656 -2.656,2.656Z" style="fill:#4d6bb3;fill-rule:nonzero;"/><path d="M387.261,73.689l-48.253,-0c-1.467,-0 -2.656,-1.189 -2.656,-2.656c-0,-1.466 1.189,-2.655 2.656,-2.655l48.253,-0c1.467,-0 2.656,1.189 2.656,2.655c-0,1.467 -1.189,2.656 -2.656,2.656Z" style="fill:#4d6bb3;fill-rule:nonzero;"/><path d="M353.966,92.009l18.726,0c0.631,0 0.974,0.698 0.569,1.156l-8.515,9.607c-0.112,0.127 -0.174,0.287 -0.174,0.453l-0,29.061c-0,0.389 0.332,0.704 0.742,0.704l15.916,-0c0.323,-0 0.61,0.199 0.707,0.492l1.067,3.199c0.151,0.453 -0.206,0.916 -0.708,0.916l-38.298,-0c-0.487,-0 -0.842,-0.436 -0.719,-0.882l0.889,-3.222c0.085,-0.309 0.379,-0.525 0.715,-0.526l16.436,-0.057c0.409,-0.001 0.74,-0.316 0.74,-0.703l-0,-28.827c-0,-0.163 -0.06,-0.322 -0.17,-0.448l-8.495,-9.772c-0.399,-0.459 -0.055,-1.151 0.572,-1.151Z" style="fill:#90cbef;fill-rule:nonzero;"/><path d="M358.682,343.189c0,-0 0.17,-22.001 13.77,-23.576c13.601,-1.575 18.287,2.464 20.149,3.211c1.862,0.746 -3.042,1.748 -7.191,5.807c-4.148,4.059 -4.106,9.12 -13.46,10.775c-9.353,1.656 -12.835,8.546 -12.835,8.546l-0.433,-4.763Z" style="fill:#4d6bb3;fill-rule:nonzero;"/><path d="M359.36,348c0.001,-0.001 0.067,-0.343 0.226,-0.957c0.555,-2.146 2.24,-7.546 6.066,-12.491c3.83,-4.946 9.775,-9.437 18.917,-9.838c0.138,-0.006 0.245,-0.123 0.239,-0.261c-0.006,-0.137 -0.123,-0.244 -0.26,-0.238c-10.637,0.46 -17.079,6.402 -20.827,12.202c-3.753,5.801 -4.847,11.47 -4.851,11.488c-0.027,0.135 0.062,0.266 0.198,0.293c0.135,0.026 0.266,-0.063 0.292,-0.198Z" style="fill:#253b96;fill-rule:nonzero;"/><path d="M359.798,335.371c0,0 2.036,-18.97 -9.523,-21.675c-11.56,-2.706 -15.997,0.308 -17.675,0.767c-1.679,0.458 2.447,1.808 5.618,5.716c3.171,3.908 2.632,8.263 10.526,10.617c7.893,2.354 10.209,8.635 10.209,8.635l0.845,-4.06Z" style="fill:#4d6bb3;fill-rule:nonzero;"/><path d="M359.202,339.412c-0.002,-0.019 -0.382,-5.014 -3.043,-10.39c-2.655,-5.373 -7.625,-11.142 -16.755,-12.595c-0.136,-0.022 -0.264,0.071 -0.286,0.207c-0.022,0.137 0.071,0.265 0.208,0.286c8.941,1.43 13.764,7.04 16.385,12.324c1.308,2.641 2.057,5.197 2.478,7.091c0.211,0.947 0.34,1.728 0.416,2.271c0.076,0.543 0.098,0.843 0.099,0.844c0.01,0.138 0.13,0.241 0.268,0.23c0.138,-0.01 0.241,-0.13 0.23,-0.268Z" style="fill:#253b96;fill-rule:nonzero;"/><path d="M361.058,292.026c0.006,-0.001 0.023,0.073 0.051,0.218c0.029,0.161 0.068,0.375 0.117,0.647c0.049,0.291 0.109,0.642 0.18,1.053c0.052,0.423 0.111,0.906 0.177,1.448c0.238,2.18 0.418,5.365 0.195,9.286c-0.186,3.923 -0.771,8.563 -1.424,13.702c-0.662,5.138 -1.229,10.809 -1.322,16.785c-0.265,11.963 1.194,22.753 2.76,30.419c0.76,3.844 1.583,6.907 2.127,9.03c0.292,1.041 0.52,1.857 0.68,2.43c0.072,0.266 0.128,0.476 0.17,0.634c0.036,0.144 0.053,0.218 0.047,0.219c0,0 -1.619,-4.586 -3.238,-12.269c-1.624,-7.666 -3.121,-18.478 -2.855,-30.469c0.093,-5.989 0.67,-11.677 1.347,-16.815c0.67,-5.14 1.276,-9.767 1.49,-13.678c0.25,-3.909 0.104,-7.083 -0.097,-9.262c-0.056,-0.542 -0.105,-1.025 -0.148,-1.447c-0.059,-0.413 -0.109,-0.765 -0.151,-1.056c-0.036,-0.274 -0.065,-0.489 -0.086,-0.651c-0.018,-0.147 -0.025,-0.223 -0.02,-0.224Z" style="fill:#1d144f;fill-rule:nonzero;"/><path d="M373.907,357.879l-26.062,-0c-0.623,-0 -1.128,-0.505 -1.128,-1.128l0,-3.135c0,-0.622 0.505,-1.127 1.128,-1.127l26.062,-0c0.623,-0 1.128,0.505 1.128,1.127l0,3.135c0,0.623 -0.505,1.128 -1.128,1.128Z" style="fill:#191a26;fill-rule:nonzero;"/><path d="M368.071,380.654l-13.429,-0c-1.084,-0 -2.011,-0.781 -2.195,-1.849l-3.763,-21.794l24.384,0l-2.788,21.699c-0.142,1.111 -1.089,1.944 -2.209,1.944Z" style="fill:#191a26;fill-rule:nonzero;"/><path d="M360.743,312.238c0,0 1.848,-14.409 10.888,-14.368c9.039,0.041 11.792,3.059 12.954,3.695c1.161,0.636 -2.133,0.906 -5.172,3.239c-3.04,2.334 -3.412,5.654 -9.674,6.001c-6.262,0.347 -9.088,4.589 -9.088,4.589l0.092,-3.156Z" style="fill:#4d6bb3;fill-rule:nonzero;"/><path d="M360.889,315.47c0.001,0 0.065,-0.201 0.206,-0.563c0.493,-1.269 1.908,-4.46 4.573,-7.319c2.669,-2.859 6.565,-5.387 12.073,-5.388c0.463,-0 0.937,0.018 1.423,0.055c0.138,0.01 0.258,-0.093 0.268,-0.23c0.011,-0.138 -0.092,-0.258 -0.23,-0.269c-0.498,-0.038 -0.986,-0.056 -1.461,-0.056c-6.48,-0.002 -10.829,3.419 -13.53,6.816c-2.705,3.399 -3.792,6.784 -3.798,6.801c-0.042,0.132 0.03,0.273 0.162,0.315c0.131,0.042 0.272,-0.03 0.314,-0.162Z" style="fill:#253b96;fill-rule:nonzero;"/><path d="M362.534,301.351c-0,-0 3.355,-14.134 -5.118,-17.285c-8.472,-3.151 -12.112,-1.3 -13.424,-1.114c-1.312,0.185 1.675,1.6 3.696,4.856c2.021,3.255 1.197,6.493 6.934,9.028c5.737,2.534 6.884,7.5 6.884,7.5l1.028,-2.985Z" style="fill:#4d6bb3;fill-rule:nonzero;"/><path d="M361.756,304.349c0,-0.004 0.008,-0.165 0.008,-0.456c-0.001,-1.283 -0.153,-5.09 -1.827,-9.04c-1.671,-3.948 -4.89,-8.047 -10.976,-9.823c-0.133,-0.039 -0.272,0.037 -0.31,0.17c-0.039,0.132 0.037,0.271 0.169,0.31c5.925,1.734 9.018,5.684 10.656,9.538c1.635,3.853 1.788,7.602 1.788,8.845c0,0.282 -0.008,0.431 -0.008,0.431c-0.007,0.138 0.1,0.255 0.237,0.262c0.138,0.007 0.256,-0.099 0.263,-0.237Z" style="fill:#253b96;fill-rule:nonzero;"/><path d="M144.737,145.226c-0,-1.851 -1.5,-3.352 -3.351,-3.352l-49.455,-0c-1.851,-0 -3.351,1.501 -3.351,3.352l0,26.724c0,1.851 1.5,3.351 3.351,3.351l40.759,-0l3.836,5.228c1.195,1.629 3.262,1.478 4.208,-0.307l3.316,-6.26c0.425,-0.561 0.687,-1.253 0.687,-2.012l-0,-26.724Z" style="fill:#4d6bb3;fill-rule:nonzero;"/><path d="M135.349,153.85l-37.849,0c-0.591,0 -1.07,-0.48 -1.07,-1.071c0,-0.591 0.479,-1.07 1.07,-1.07l37.849,0c0.591,0 1.07,0.479 1.07,1.07c0,0.591 -0.479,1.071 -1.07,1.071Z" style="fill:#fff;fill-rule:nonzero;"/><path d="M123.846,158.862l-26.346,-0c-0.591,-0 -1.07,-0.479 -1.07,-1.071c0,-0.591 0.479,-1.07 1.07,-1.07l26.346,0c0.591,0 1.07,0.479 1.07,1.07c0,0.592 -0.479,1.071 -1.07,1.071Z" style="fill:#fff;fill-rule:nonzero;"/><path d="M130.237,163.98l-32.737,0c-0.591,0 -1.07,-0.479 -1.07,-1.07c0,-0.591 0.479,-1.071 1.07,-1.071l32.737,-0c0.591,-0 1.071,0.48 1.071,1.071c-0,0.591 -0.48,1.07 -1.071,1.07Z" style="fill:#fff;fill-rule:nonzero;"/><path d="M253.056,347.589c-16.256,0 -29.479,-13.13 -29.573,-29.406c-0.094,-16.335 13.071,-29.653 29.406,-29.747c0.058,0 0.116,-0.001 0.174,-0.001c16.254,-0 29.478,13.129 29.572,29.407c0.094,16.334 -13.071,29.652 -29.405,29.746c-0.058,0.001 -0.117,0.001 -0.174,0.001Z" style="fill:#d8eefb;fill-rule:nonzero;"/><path d="M280.433,315.763c0.095,16.499 -13.203,29.952 -29.702,30.047c-16.5,0.095 -29.952,-13.203 -30.047,-29.703c-0.096,-16.5 13.202,-29.952 29.702,-30.047c16.499,-0.095 29.952,13.203 30.047,29.703Z" style="fill:#a7d9f5;fill-rule:nonzero;"/><path d="M272.793,315.334c0.072,12.543 -10.036,22.769 -22.58,22.842c-12.543,0.072 -22.769,-10.037 -22.842,-22.58c-0.072,-12.544 10.037,-22.77 22.58,-22.843c12.544,-0.072 22.77,10.037 22.842,22.581Z" style="fill:#38b9e5;fill-rule:nonzero;"/><path d="M273.44,316.276c0.071,12.375 -9.902,22.464 -22.277,22.535c-12.375,0.072 -22.463,-9.902 -22.535,-22.276c-0.071,-12.375 9.902,-22.464 22.277,-22.536c12.375,-0.071 22.463,9.902 22.535,22.277Z" style="fill:#f36f64;fill-rule:nonzero;"/><path d="M273.44,316.276c0.071,12.375 -9.902,22.464 -22.277,22.535c-12.375,0.072 -22.463,-9.902 -22.535,-22.276c-0.071,-12.375 9.902,-22.464 22.277,-22.536c12.375,-0.071 22.463,9.902 22.535,22.277Z" style="fill:#73c2ec;fill-rule:nonzero;"/><path d="M251.964,322.922l-0.029,-5.028c1.707,0.473 2.96,1.119 2.968,2.511c0.008,1.221 -0.868,2.192 -2.939,2.517Zm-0.081,-14.201l-0.001,-0l0.001,-0Zm-2.3,5.154c-1.65,-0.474 -2.875,-1.091 -2.883,-2.455c-0.007,-1.249 0.839,-2.276 2.854,-2.6l0.029,5.055Zm2.332,0.583l-0.033,-5.732l0.028,-0.001c0.997,0.11 2.029,0.369 3.052,0.777c0.854,0.436 1.432,0.892 1.432,0.892l0.075,-0.178l0.872,-2.069l0.201,-0.475l-1.028,-1.068l-0.491,0.224c-1.256,-0.62 -2.686,-1.103 -4.158,-1.175l-0.018,-3.152l-0.987,-0.785l0.005,0.791l-1.347,0.007l0.018,3.21c-4.428,0.451 -6.515,2.991 -6.499,5.888c0.023,3.948 3.409,4.951 6.566,5.699l0.033,5.681c-2.16,-0.187 -4.295,-0.998 -5.693,-2.126l-1.262,2.876c1.484,1.269 4.188,2.163 6.972,2.317l0.014,2.38l-1.109,0.026l1.114,0.746l2.328,-0.013l-0.018,-3.181c4.455,-0.48 6.571,-2.992 6.554,-5.889c-0.021,-3.947 -3.464,-4.922 -6.621,-5.67Z" style="fill:#38b9e5;fill-rule:nonzero;"/><path d="M253.936,319.631c-0.008,-1.392 -1.261,-2.037 -2.968,-2.511l0.029,5.028c2.072,-0.324 2.947,-1.295 2.939,-2.517Zm-5.321,-6.531l-0.029,-5.056c-2.015,0.324 -2.861,1.351 -2.854,2.601c0.008,1.364 1.233,1.982 2.883,2.455Zm2.399,12.144l0.019,3.182l-2.329,0.013l-0.019,-3.153c-2.784,-0.154 -5.488,-1.048 -6.973,-2.318l1.262,-2.875c1.399,1.128 3.534,1.939 5.694,2.125l-0.033,-5.681c-3.158,-0.749 -6.544,-1.752 -6.566,-5.7c-0.017,-2.898 2.07,-5.438 6.499,-5.889l-0.019,-3.21l2.33,-0.014l0.018,3.153c2.103,0.102 4.236,0.715 5.777,1.7l-1.149,2.875c-1.51,-0.871 -3.104,-1.345 -4.61,-1.507l0.033,5.738c3.157,0.749 6.6,1.723 6.623,5.672c0.017,2.897 -2.1,5.409 -6.557,5.889Z" style="fill:#fff;fill-rule:nonzero;"/><path d="M285.363,294.486c0,6.721 -5.449,12.17 -12.17,12.17c-6.721,0 -12.17,-5.449 -12.17,-12.17c0,-6.722 5.449,-12.17 12.17,-12.17c6.721,-0 12.17,5.448 12.17,12.17Z" style="fill:#e1f2fc;fill-rule:nonzero;"/><path d="M268.385,294.537l1.633,3.663c0.225,0.506 0.725,0.791 1.213,0.787c0.348,0.002 0.715,-0.143 0.976,-0.428l6.103,-6.634c0.285,-0.309 0.265,-0.791 -0.045,-1.076c-0.309,-0.285 -0.791,-0.265 -1.076,0.045l-6.103,6.633l0.145,0.134l-0,-0.197l-0.145,0.063l0.145,0.134l-0,-0.197l-0,0.195l0.179,-0.079l-0.179,-0.116l-0,0.195l0.179,-0.079l-1.634,-3.663c-0.171,-0.385 -0.621,-0.557 -1.005,-0.386c-0.385,0.171 -0.557,0.622 -0.386,1.006Z" style="fill:#4d6bb3;fill-rule:nonzero;"/><path d="M283.497,294.452l-0.5,-0c0,2.718 -1.1,5.175 -2.881,6.957c-1.781,1.78 -4.239,2.881 -6.957,2.881c-2.717,-0 -5.175,-1.101 -6.956,-2.881c-1.781,-1.782 -2.881,-4.239 -2.882,-6.957c0.001,-2.717 1.101,-5.175 2.882,-6.956c1.781,-1.781 4.239,-2.882 6.956,-2.882c2.718,-0 5.176,1.101 6.957,2.882c1.781,1.781 2.881,4.239 2.881,6.956l0.5,-0c0,-5.709 -4.628,-10.338 -10.338,-10.338c-5.709,-0 -10.337,4.629 -10.338,10.338c0.001,5.71 4.629,10.338 10.338,10.338c5.71,-0 10.338,-4.628 10.338,-10.338Z" style="fill:#fff;fill-rule:nonzero;"/><path d="M112.379,201.062c-0,0 3.69,-10.212 19.244,-5.794c10.369,2.946 16.396,11.175 15.71,23.261c-0.724,12.768 7.347,8.849 2.648,27.301c-3.178,12.475 11.917,22.755 -1.814,42.35c-11.118,15.866 -73.996,6.727 -73.365,-20.649c0.298,-12.928 11.094,-6.882 11.745,-27.734c0.276,-8.851 17.136,-5.898 14.869,-19.321c-1.13,-6.686 4.223,-20.264 10.963,-19.414Z" style="fill:#ed1f28;fill-rule:nonzero;"/><path d="M131.29,241.004l0.032,0.02c0.344,0.227 3.237,2.255 3.233,6.334c-0,0.541 -0.051,1.121 -0.166,1.739c-0.387,2.089 -0.698,4.143 -0.698,6.124c-0.005,3.46 0.968,6.715 4.141,9.42c0.105,0.09 0.262,0.078 0.352,-0.027c0.09,-0.105 0.077,-0.263 -0.027,-0.353c-3.051,-2.612 -3.961,-5.664 -3.966,-9.04c-0.001,-1.928 0.304,-3.955 0.69,-6.033c0.12,-0.647 0.174,-1.257 0.174,-1.83c-0,-2.31 -0.874,-4.009 -1.745,-5.121c-0.873,-1.114 -1.741,-1.648 -1.758,-1.659c-0.118,-0.072 -0.272,-0.036 -0.344,0.082c-0.072,0.118 -0.035,0.272 0.082,0.344Z" style="fill:#d82027;fill-rule:nonzero;"/><path d="M142.614,227.526c0.668,2.914 1.681,5.178 1.679,7.955c-0.001,1.657 -0.356,3.509 -1.369,5.818c-1.235,2.81 -1.694,5.166 -1.693,7.242c0,2.88 0.88,5.207 1.743,7.456c0.864,2.251 1.71,4.422 1.709,7.025c-0,1.819 -0.41,3.856 -1.532,6.295c-2.005,4.358 -2.816,8.128 -3.228,11.407c-0.018,0.137 0.079,0.262 0.216,0.279c0.137,0.017 0.262,-0.08 0.28,-0.217c0.408,-3.245 1.206,-6.955 3.186,-11.26c1.147,-2.492 1.579,-4.609 1.578,-6.504c-0,-2.715 -0.881,-4.958 -1.743,-7.204c-0.863,-2.249 -1.709,-4.502 -1.709,-7.277c0,-2.002 0.439,-4.283 1.65,-7.041c1.037,-2.358 1.412,-4.289 1.412,-6.019c-0.003,-2.906 -1.043,-5.212 -1.691,-8.067c-0.031,-0.134 -0.165,-0.218 -0.3,-0.188c-0.134,0.031 -0.218,0.165 -0.188,0.3Z" style="fill:#d82027;fill-rule:nonzero;"/><path d="M145.329,292.725l19.859,0.002l-6.088,-6.645l-13.029,1.97l-0.742,4.673Z" style="fill:#fbc1a2;fill-rule:nonzero;"/><path d="M109.121,234.663c-0.015,0.009 -1.284,0.713 -2.561,2.094c-1.275,1.38 -2.564,3.452 -2.564,6.173c0,0.365 0.023,0.74 0.072,1.127c0.061,0.48 0.089,0.934 0.089,1.365c-0.002,2.938 -1.307,4.826 -2.653,6.473c-0.673,0.822 -1.355,1.577 -1.879,2.368c-0.523,0.789 -0.889,1.628 -0.888,2.593c-0.001,0.517 0.105,1.065 0.338,1.655c0.051,0.127 0.196,0.19 0.325,0.139c0.128,-0.051 0.191,-0.195 0.14,-0.324c-0.213,-0.539 -0.303,-1.022 -0.303,-1.47c-0,-0.835 0.311,-1.569 0.806,-2.317c1.468,-2.242 4.613,-4.465 4.614,-9.117c-0,-0.453 -0.029,-0.928 -0.093,-1.428c-0.047,-0.366 -0.068,-0.721 -0.068,-1.064c-0.001,-2.556 1.209,-4.508 2.432,-5.833c0.61,-0.662 1.223,-1.163 1.681,-1.498c0.229,-0.167 0.419,-0.293 0.552,-0.376c0.132,-0.084 0.202,-0.122 0.202,-0.123c0.121,-0.067 0.165,-0.219 0.098,-0.34c-0.067,-0.12 -0.219,-0.164 -0.34,-0.097Z" style="fill:#d82027;fill-rule:nonzero;"/><path d="M106.459,213.182c-0.006,0.017 -1.82,3.968 -1.822,8.45c0,0.586 0.031,1.182 0.102,1.78c0.051,0.426 0.075,0.834 0.075,1.225c-0.002,2.233 -0.781,3.925 -1.97,5.401c-1.783,2.212 -4.511,3.899 -6.827,5.982c-2.313,2.079 -4.222,4.604 -4.257,8.458c-0.033,3.205 -1.382,5.786 -3.182,8.059c-1.8,2.272 -4.048,4.218 -5.837,6.134c-0.095,0.1 -0.089,0.258 0.012,0.353c0.101,0.095 0.259,0.089 0.353,-0.012c1.762,-1.888 4.024,-3.845 5.864,-6.164c1.838,-2.318 3.256,-5.016 3.29,-8.365c0.026,-2.457 0.829,-4.317 2.031,-5.9c1.803,-2.374 4.529,-4.098 6.833,-6.097c2.3,-1.993 4.193,-4.311 4.19,-7.849c0,-0.411 -0.026,-0.839 -0.079,-1.284c-0.068,-0.576 -0.098,-1.152 -0.098,-1.721c-0.001,-2.174 0.444,-4.239 0.889,-5.758c0.223,-0.76 0.446,-1.383 0.612,-1.815c0.084,-0.216 0.153,-0.384 0.201,-0.498c0.048,-0.114 0.074,-0.171 0.075,-0.171c0.057,-0.125 0.002,-0.274 -0.124,-0.331c-0.125,-0.058 -0.274,-0.003 -0.331,0.123Z" style="fill:#d82027;fill-rule:nonzero;"/><path d="M203.65,411.869l-0.04,12.114l-11.179,0.089l-1.77,-9.875l12.989,-2.328Z" style="fill:#f6977c;fill-rule:nonzero;"/><path d="M170.241,415.666l-1.094,13.216l-12.083,1.095l-1.976,-9.939l15.153,-4.372Z" style="fill:#f6977c;fill-rule:nonzero;"/><path d="M120.367,326.229c12.845,6.897 39.592,20.559 54.764,23.313c1.246,0.226 2.216,1.202 2.401,2.454l9.243,62.952c0.165,1.126 0.964,2.054 2.056,2.377c3.512,1.038 11.471,2.366 17.632,-4.217c0.563,-0.601 0.862,-1.404 0.805,-2.226c-0.64,-9.286 -4.874,-69.304 -7.923,-77.175c-3.103,-8.014 -46.447,-16.441 -51.727,-17.44c-0.348,-0.066 -0.703,-0.067 -1.052,-0.005l-25.333,4.515c-2.728,0.486 -3.308,4.14 -0.866,5.452Z" style="fill:#546ab2;fill-rule:nonzero;"/><path d="M101.763,330.279c0.061,0.015 -10.387,19.696 41.938,24.321c1.154,0.102 2.012,1.119 2.13,2.272l6.503,63.507c0.103,1.006 0.781,1.853 1.739,2.176c3.275,1.104 11.08,2.751 18.099,-3.298c0.619,-0.534 0.986,-1.299 0.963,-2.116c-0.255,-9.276 -2.007,-69.453 -4.728,-77.446c-2.618,-7.69 -41.151,-17.235 -49.779,-19.283c-1.03,-0.245 -2.098,0.169 -2.7,1.04l-14.165,8.827Z" style="fill:#546ab2;fill-rule:nonzero;"/><path d="M99.341,249.647c16.333,-4.859 36.125,-0.641 39.368,0.332c3.701,1.11 8.327,5.551 13.323,15.544l4.996,9.992l-9.992,2.961l-0,38.119c-8.921,7.578 -19.653,12.716 -31.15,14.912l-13.499,2.415c-1.309,0.234 -2.501,-0.798 -2.456,-2.126l1.547,-48.504l-16.958,0.892c-0,0 -0.787,-29.893 14.821,-34.537Z" style="fill:#fffffe;fill-rule:nonzero;"/><path d="M133.118,284.871l-30.446,8.374l-1.194,-9.953l-14.153,0.637c-0,0 -3.189,24.59 5.226,25.116c12.744,0.796 45.585,-15.337 45.585,-15.337l-5.018,-8.837Z" style="fill:#fbc1a2;fill-rule:nonzero;"/><path d="M128.231,208.201c1.705,-0.687 4.181,-0.138 5.439,1.166c3.454,3.578 7.76,9.83 6.301,17.814c-1.688,9.232 -3.877,14.979 -8.966,14.885c-1.652,-0.031 -2.373,1.279 -2.425,2.829l-0.314,4.826c-1.504,8.441 -13.852,9.662 -17.384,1.718l-0.579,-1.302c-0.424,-0.953 -0.408,-2.039 0.041,-2.981c1.488,-3.119 5.111,-8.427 1.053,-20.203c-0.278,-0.806 -1.516,-3.562 -0.727,-5.499c0.673,-1.654 2.823,-1.899 4.19,-0.75c0.302,0.254 0.709,0.3 1.473,-0.232c2.646,-1.843 2.879,-8.633 11.898,-12.271Z" style="fill:#fbc1a2;fill-rule:nonzero;"/><path d="M129.328,207.96c0,-0 0.144,3.113 5.327,5.785c6.339,3.268 2.439,7.18 5.371,11.805c3.088,4.871 0.407,-4.409 0.407,-4.409l-0.899,-10.586c-1.791,-6.869 -4.417,-11.36 -11.008,-9.985c-3.534,0.738 -6.952,2.069 -8.787,4.442c-4.833,6.252 -5.889,20.495 -5.889,20.495c-0,-0 5.311,0.106 8.105,-6.569c3.158,-7.546 2.787,-8.76 7.373,-10.978Z" style="fill:#ed1f28;fill-rule:nonzero;"/><path d="M159.453,293.416l-12.122,0c-0.995,0 -1.802,-0.807 -1.802,-1.802l0,-26.298c0,-0.996 0.807,-1.802 1.802,-1.802l12.122,0c0.995,0 1.802,0.806 1.802,1.802l0,26.298c0,0.995 -0.807,1.802 -1.802,1.802Z" style="fill:#1d144f;fill-rule:nonzero;"/><path d="M169.905,283.537c-3.291,-4.592 -7.884,-13.222 -9.448,-13.398c-0.839,-0.095 -1.112,0.643 -0.741,2.386c1.104,5.181 2.888,6.192 -1.96,5.36c-0.7,-0.12 -4.257,-0.813 -6.206,-1.194c-1.432,-0.28 -2.686,1.146 -2.106,2.485c0.158,0.364 0.417,0.761 0.812,1.19c-0,-0 -1.146,3.225 1.922,4.025c-0,0 0.359,3.664 2.666,3.829c-0,0 2.455,1.527 7.623,3.664c2.351,1.571 5.509,1.108 7.31,-1.072l0.395,-0.477c1.655,-2.003 1.54,-4.931 -0.267,-6.798Z" style="fill:#fbc1a2;fill-rule:nonzero;"/><path d="M150.718,280.642c1.629,0.509 4.08,1.269 5.78,1.272l0.237,-0.005c0.138,-0.007 0.244,-0.124 0.238,-0.262c-0.007,-0.138 -0.124,-0.244 -0.262,-0.238l-0.213,0.005c-1.563,0.003 -4.014,-0.74 -5.63,-1.249c-0.132,-0.041 -0.272,0.032 -0.313,0.164c-0.042,0.132 0.032,0.272 0.163,0.313Z" style="fill:#f48686;fill-rule:nonzero;"/><path d="M152.499,284.693c0.014,0.002 2.639,1.017 4.801,1.02c0.151,-0 0.3,-0.005 0.447,-0.016c0.137,-0.01 0.241,-0.13 0.23,-0.268c-0.01,-0.137 -0.13,-0.24 -0.268,-0.23c-0.132,0.01 -0.269,0.014 -0.409,0.014c-1.006,0.001 -2.169,-0.245 -3.073,-0.493c-0.453,-0.124 -0.841,-0.248 -1.116,-0.341c-0.275,-0.093 -0.433,-0.153 -0.433,-0.153c-0.129,-0.05 -0.274,0.015 -0.323,0.144c-0.049,0.129 0.015,0.273 0.144,0.323Z" style="fill:#f48686;fill-rule:nonzero;"/><path d="M133.118,284.871l3.696,-2.679c2.668,-5.311 7.581,-14.931 8.473,-14.467c0.982,0.511 1.243,1.586 0.579,3.695c-1.59,5.052 -0.807,7.529 2.059,7.312c0.986,-0.074 9.457,-0.125 9.457,-0.125c0,-0 2.029,1.814 -0.667,3.869c-0,-0 0.569,3.375 -2.59,3.631c0,-0 -0.99,3.546 -3.29,3.308c0,-0 -2.683,1.079 -8.143,2.287l-4.556,2.006l-5.018,-8.837Z" style="fill:#fbc1a2;fill-rule:nonzero;"/><path d="M156.147,282.172c-1.207,0.158 -2.85,0.363 -4.256,0.362c-0.647,0.001 -1.243,-0.044 -1.714,-0.15c-0.135,-0.03 -0.269,0.054 -0.299,0.189c-0.03,0.135 0.054,0.269 0.189,0.299c0.529,0.119 1.154,0.162 1.824,0.162c1.452,-0 3.11,-0.208 4.321,-0.366c0.137,-0.018 0.233,-0.143 0.215,-0.28c-0.017,-0.137 -0.143,-0.234 -0.28,-0.216Z" style="fill:#f48686;fill-rule:nonzero;"/><path d="M153.661,285.857c-0.001,-0 -0.376,0.073 -0.958,0.147c-0.581,0.073 -1.365,0.147 -2.168,0.147c-0.694,0 -1.402,-0.056 -1.998,-0.208c-0.134,-0.034 -0.27,0.047 -0.304,0.181c-0.034,0.134 0.047,0.27 0.18,0.304c0.659,0.167 1.401,0.223 2.122,0.223c1.665,-0.001 3.212,-0.301 3.221,-0.303c0.135,-0.026 0.224,-0.157 0.198,-0.293c-0.027,-0.135 -0.158,-0.224 -0.293,-0.198Z" style="fill:#f48686;fill-rule:nonzero;"/><path d="M145.172,267.947c0.535,0.29 0.801,0.699 0.812,1.515c-0,0.487 -0.112,1.109 -0.356,1.883c-0.549,1.744 -0.822,3.192 -0.822,4.352c-0,1.045 0.222,1.869 0.7,2.443c0.478,0.576 1.202,0.858 2.083,0.855c0.115,-0 0.234,-0.004 0.355,-0.014c0.468,-0.035 2.845,-0.068 5.082,-0.089c2.24,-0.022 4.354,-0.035 4.358,-0.035l-0.002,-0.25l-0.166,0.187l0.022,0.021c0.122,0.117 0.632,0.683 0.626,1.415c-0.002,0.554 -0.265,1.253 -1.301,2.047l-0.12,0.091l0.025,0.149c0,-0 0.009,0.049 0.018,0.145c0.009,0.097 0.019,0.237 0.019,0.404c0.001,0.464 -0.077,1.136 -0.409,1.689c-0.335,0.551 -0.896,1.009 -1.992,1.103l-0.173,0.014l-0.047,0.168l-0.041,0.133c-0.099,0.304 -0.381,1.08 -0.855,1.761c-0.477,0.686 -1.119,1.246 -1.933,1.243l-0.194,-0.01l-0.062,-0.007l-0.057,0.023c-0.001,-0 -0.162,0.065 -0.495,0.184c-1.001,0.357 -3.524,1.187 -7.609,2.091c-0.135,0.03 -0.22,0.163 -0.19,0.298c0.03,0.135 0.163,0.22 0.298,0.19c5.474,-1.211 8.17,-2.294 8.182,-2.299l-0.093,-0.232l-0.026,0.249l0.246,0.013c0.602,0 1.121,-0.237 1.54,-0.574c1.252,-1.017 1.759,-2.91 1.77,-2.929l-0.24,-0.067l0.02,0.249c1.227,-0.094 1.981,-0.667 2.38,-1.345c0.402,-0.676 0.479,-1.43 0.48,-1.945c0,-0.372 -0.042,-0.622 -0.044,-0.632l-0.246,0.042l0.151,0.199c1.118,-0.847 1.501,-1.713 1.498,-2.445c-0.008,-1.101 -0.798,-1.788 -0.815,-1.809l-0.072,-0.064l-0.096,-0c-0.007,0.001 -8.459,0.05 -9.475,0.126c-0.109,0.008 -0.215,0.012 -0.317,0.012c-0.785,-0.003 -1.327,-0.233 -1.699,-0.675c-0.373,-0.444 -0.585,-1.145 -0.584,-2.123c-0.001,-1.082 0.259,-2.489 0.799,-4.202c0.253,-0.805 0.378,-1.471 0.379,-2.033c0.011,-0.936 -0.388,-1.609 -1.081,-1.958c-0.123,-0.064 -0.274,-0.016 -0.338,0.106c-0.063,0.122 -0.016,0.273 0.107,0.337Z" style="fill:#f48686;fill-rule:nonzero;"/><path d="M154.734,288.444c1.2,0.59 5.622,2.837 7.637,3.671c0.128,0.052 0.274,-0.008 0.327,-0.136c0.052,-0.127 -0.008,-0.274 -0.136,-0.326c-1.977,-0.817 -6.405,-3.066 -7.608,-3.658c-0.124,-0.061 -0.274,-0.009 -0.335,0.114c-0.06,0.124 -0.009,0.274 0.115,0.335Z" style="fill:#f48686;fill-rule:nonzero;"/><path d="M204.718,421.894c0,-0 -3.576,2.896 -13.668,1.348c0,-0 -0.711,6.315 -3.459,9.616c-2.747,3.3 5.215,7.289 11.189,5.438c5.974,-1.851 10.434,2.555 16.339,1.838c5.905,-0.717 14.421,-7.141 11.263,-9.057c-3.157,-1.916 -14.378,-1.842 -17.175,-6.228c-1.649,-2.587 -4.489,-2.955 -4.489,-2.955Z" style="fill:#1d144f;fill-rule:nonzero;"/><path d="M212.176,437.918c0.639,0.19 1.286,0.274 1.928,0.273c2.51,-0.003 4.943,-1.265 6.758,-2.511c1.815,-1.249 3.012,-2.492 3.02,-2.5c0.096,-0.1 0.093,-0.258 -0.007,-0.354c-0.099,-0.095 -0.258,-0.092 -0.353,0.007c-0.001,0 -0.071,0.073 -0.208,0.206c-0.953,0.935 -5.115,4.667 -9.21,4.652c-0.599,0 -1.197,-0.077 -1.786,-0.252c-0.132,-0.04 -0.271,0.036 -0.311,0.168c-0.039,0.132 0.036,0.272 0.169,0.311Z" style="fill:#fff;fill-rule:nonzero;"/><path d="M189.858,434.069c0.025,0.034 1.877,2.213 6.01,2.212c0.408,-0 0.839,-0.021 1.291,-0.068c1.124,-0.115 2.239,-0.172 3.354,-0.172c3.748,0 7.509,0.643 11.663,1.877c0.132,0.039 0.271,-0.036 0.311,-0.169c0.039,-0.132 -0.036,-0.271 -0.169,-0.31c-4.186,-1.244 -7.999,-1.898 -11.805,-1.898c-1.132,0 -2.264,0.058 -3.405,0.175c-0.436,0.045 -0.849,0.065 -1.24,0.065c-1.976,-0 -3.385,-0.517 -4.302,-1.029c-0.459,-0.257 -0.793,-0.512 -1.012,-0.701c-0.109,-0.094 -0.189,-0.173 -0.241,-0.226l-0.057,-0.06l-0.015,-0.017c-0.089,-0.106 -0.246,-0.12 -0.352,-0.031c-0.106,0.088 -0.12,0.246 -0.031,0.352Z" style="fill:#fff;fill-rule:nonzero;"/><path d="M170.515,426.472c-0,0 -5.623,3.999 -15.613,1.889c-0,0 0.135,6.008 -2.793,9.15c-2.927,3.142 4.8,7.569 10.867,6.055c6.068,-1.515 10.276,3.134 16.211,2.748c5.936,-0.386 14.798,-6.324 11.752,-8.413c-3.045,-2.089 -15.36,-3.488 -17.907,-8.024c-1.502,-2.674 -2.517,-3.405 -2.517,-3.405Z" style="fill:#1d144f;fill-rule:nonzero;"/><path d="M176.373,443.937c0.765,0.275 1.552,0.393 2.334,0.393c2.433,-0.003 4.827,-1.127 6.622,-2.239c1.794,-1.113 2.988,-2.223 2.996,-2.23c0.101,-0.094 0.107,-0.252 0.013,-0.353c-0.094,-0.101 -0.252,-0.107 -0.353,-0.013c0,-0 -0.07,0.065 -0.207,0.183c-0.95,0.833 -5.084,4.164 -9.071,4.152c-0.733,0 -1.459,-0.11 -2.165,-0.363c-0.13,-0.047 -0.274,0.02 -0.32,0.15c-0.047,0.13 0.021,0.273 0.151,0.32Z" style="fill:#fff;fill-rule:nonzero;"/><path d="M154.305,438.847c0.024,0.037 1.942,2.565 6.56,2.563c0.198,-0 0.402,-0.004 0.61,-0.014c0.514,-0.024 1.025,-0.036 1.534,-0.036c4.37,0 8.624,0.876 13.364,2.577c0.13,0.047 0.273,-0.021 0.319,-0.151c0.047,-0.13 -0.02,-0.273 -0.15,-0.319c-4.777,-1.716 -9.095,-2.607 -13.533,-2.607c-0.517,0 -1.036,0.012 -1.557,0.037c-0.201,0.009 -0.397,0.013 -0.587,0.013c-2.215,-0 -3.756,-0.601 -4.746,-1.196c-0.495,-0.297 -0.852,-0.593 -1.084,-0.813c-0.115,-0.11 -0.2,-0.201 -0.254,-0.263l-0.06,-0.07l-0.016,-0.02c-0.082,-0.111 -0.239,-0.134 -0.35,-0.051c-0.11,0.082 -0.133,0.239 -0.05,0.35Z" style="fill:#fff;fill-rule:nonzero;"/><path d="M170.321,351.602c-0.506,-5.809 -1.056,-10.152 -1.677,-11.987c-0.412,-1.195 -1.566,-2.353 -3.242,-3.52c-5.031,-3.49 -14.909,-7.033 -24.455,-9.938c-0.132,-0.04 -0.272,0.034 -0.312,0.166c-0.04,0.132 0.034,0.272 0.166,0.312c6.351,1.932 12.852,4.152 17.941,6.435c2.545,1.14 4.737,2.298 6.375,3.435c1.64,1.136 2.715,2.26 3.053,3.271c0.588,1.717 1.152,6.081 1.653,11.87c0.012,0.137 0.133,0.239 0.27,0.227c0.138,-0.012 0.24,-0.133 0.228,-0.271Z" style="fill:#fff;fill-rule:nonzero;"/><path d="M169.968,382.897c-0.386,-9.091 -0.863,-18.658 -1.421,-26.73c-0.009,-0.138 -0.128,-0.242 -0.266,-0.232c-0.138,0.009 -0.242,0.129 -0.232,0.267c0.557,8.064 1.034,17.628 1.42,26.717c0.006,0.138 0.122,0.245 0.26,0.239c0.138,-0.006 0.245,-0.123 0.239,-0.261Z" style="fill:#fff;fill-rule:nonzero;"/><path d="M159.183,421.55c3.34,-0.167 7.207,-1.265 10.849,-4.406c0.652,-0.562 1.052,-1.366 1.052,-2.235l-0.001,-0.077c-0.083,-2.993 -0.321,-11.28 -0.697,-21.404c-0.005,-0.138 -0.121,-0.245 -0.259,-0.24c-0.138,0.005 -0.245,0.121 -0.24,0.259c0.376,10.121 0.614,18.407 0.696,21.398l0.001,0.064c-0,0.713 -0.327,1.381 -0.878,1.856c-3.554,3.062 -7.296,4.121 -10.548,4.285c-0.138,0.007 -0.244,0.125 -0.237,0.262c0.007,0.138 0.124,0.245 0.262,0.238Z" style="fill:#fff;fill-rule:nonzero;"/><path d="M155.149,339.309c0.001,0.024 0.086,2.145 1.399,4.649c1.312,2.504 3.87,5.385 8.763,6.876l0.146,-0.478c-4.764,-1.456 -7.199,-4.223 -8.466,-6.63c-0.632,-1.204 -0.968,-2.318 -1.146,-3.129c-0.089,-0.406 -0.138,-0.736 -0.165,-0.962c-0.014,-0.114 -0.021,-0.201 -0.026,-0.26l-0.005,-0.085l-0.5,0.019Z" style="fill:#fff;fill-rule:nonzero;"/><path d="M188.223,332.322c0.009,0.03 1.992,7.798 10.276,12.11l0.231,-0.443c-4.044,-2.103 -6.55,-5.054 -8.046,-7.481c-0.748,-1.213 -1.244,-2.294 -1.551,-3.071c-0.154,-0.388 -0.261,-0.7 -0.329,-0.913c-0.068,-0.214 -0.096,-0.325 -0.096,-0.325l-0.485,0.123Z" style="fill:#fff;fill-rule:nonzero;"/><path d="M190.653,414.447c0.003,-0 0.069,0.002 0.193,0.002c1.225,-0.002 8.084,-0.194 13.814,-4.561l-0.304,-0.397c-5.573,4.258 -12.337,4.461 -13.51,4.458c-0.118,-0 -0.177,-0.002 -0.177,-0.001l-0.016,0.499Z" style="fill:#fff;fill-rule:nonzero;"/><path d="M108.157,251.248c0.005,0.023 0.347,2.017 1.871,4.027c1.519,2.01 4.249,4.021 8.923,4.017c1.218,0 2.569,-0.136 4.066,-0.44c0.135,-0.028 0.223,-0.16 0.195,-0.295c-0.028,-0.135 -0.16,-0.222 -0.295,-0.195c-1.467,0.298 -2.785,0.43 -3.966,0.43c-4.528,-0.005 -7.072,-1.912 -8.525,-3.819c-0.725,-0.955 -1.17,-1.912 -1.433,-2.629c-0.132,-0.358 -0.218,-0.656 -0.271,-0.863c-0.027,-0.104 -0.045,-0.184 -0.056,-0.238l-0.016,-0.079c-0.023,-0.136 -0.152,-0.228 -0.288,-0.204c-0.137,0.023 -0.228,0.152 -0.205,0.288Z" style="fill:#0b5786;fill-rule:nonzero;"/><path d="M129.468,251.918l0.002,0.017c-0.007,0.238 -0.064,2.723 -3.451,4.781c-0.118,0.072 -0.156,0.226 -0.085,0.343c0.072,0.118 0.226,0.156 0.344,0.086c3.557,-2.152 3.698,-4.868 3.692,-5.21l-0.002,-0.037c-0.004,-0.138 -0.121,-0.245 -0.259,-0.24c-0.138,0.006 -0.245,0.122 -0.241,0.26Z" style="fill:#0b5786;fill-rule:nonzero;"/><path d="M86.866,282.048l10.623,-0.092c0.138,-0.001 0.249,-0.114 0.248,-0.252c-0.001,-0.138 -0.114,-0.249 -0.252,-0.248l-10.623,0.092c-0.138,0.002 -0.249,0.114 -0.248,0.252c0.001,0.139 0.114,0.249 0.252,0.248Z" style="fill:#0b5786;fill-rule:nonzero;"/><path d="M101.819,283.125l1.116,-7.106c0.021,-0.137 -0.072,-0.265 -0.208,-0.286c-0.137,-0.022 -0.265,0.072 -0.286,0.208l-1.116,7.106c-0.021,0.137 0.072,0.265 0.208,0.286c0.137,0.021 0.265,-0.072 0.286,-0.208Z" style="fill:#0b5786;fill-rule:nonzero;"/><path d="M117.647,326.58c-4.05,1.095 -8.592,2.015 -13.63,2.617c-0.137,0.016 -0.235,0.14 -0.219,0.277c0.017,0.138 0.141,0.235 0.278,0.219c5.063,-0.604 9.629,-1.529 13.702,-2.63c0.133,-0.036 0.212,-0.173 0.176,-0.307c-0.036,-0.133 -0.174,-0.212 -0.307,-0.176Z" style="fill:#0b5786;fill-rule:nonzero;"/><path d="M142.959,314.344c-0,-0 -0.091,0.083 -0.28,0.244c-1.323,1.122 -7.343,5.902 -18.191,9.836c-0.13,0.047 -0.197,0.191 -0.15,0.321c0.047,0.129 0.19,0.196 0.32,0.149c12.474,-4.523 18.621,-10.165 18.639,-10.182c0.102,-0.093 0.109,-0.251 0.015,-0.353c-0.093,-0.102 -0.251,-0.109 -0.353,-0.015Z" style="fill:#0b5786;fill-rule:nonzero;"/><path d="M126.775,318.368c-2.669,1.012 -5.45,1.705 -8.155,1.794c-0.138,0.004 -0.246,0.12 -0.242,0.258c0.005,0.138 0.12,0.246 0.258,0.242c2.779,-0.092 5.611,-0.801 8.316,-1.827c0.13,-0.049 0.194,-0.193 0.146,-0.322c-0.049,-0.129 -0.194,-0.194 -0.323,-0.145Z" style="fill:#0b5786;fill-rule:nonzero;"/><path d="M142.813,308.524c-0.001,0 -0.287,0.254 -0.818,0.692c-1.595,1.313 -5.375,4.26 -10.038,6.764c-0.121,0.066 -0.167,0.217 -0.101,0.339c0.065,0.122 0.217,0.167 0.338,0.102c6.275,-3.372 10.942,-7.516 10.951,-7.524c0.103,-0.091 0.113,-0.249 0.021,-0.352c-0.091,-0.104 -0.25,-0.113 -0.353,-0.021Z" style="fill:#0b5786;fill-rule:nonzero;"/><path d="M119.323,333.84l0.04,0.092c0.188,0.439 0.96,2.404 0.959,4.863c-0.002,2.343 -0.689,5.122 -3.236,7.525l0.343,0.364c2.662,-2.507 3.395,-5.451 3.393,-7.889c-0.001,-2.929 -1.038,-5.148 -1.046,-5.167l-0.453,0.212Z" style="fill:#fff;fill-rule:nonzero;"/></g></svg>