<svg width="132" height="35" viewBox="0 0 132 35" fill="none" xmlns="http://www.w3.org/2000/svg">
<g clip-path="url(#clip0_2_2)">
<rect width="132" height="35" fill="none"/>
<g clip-path="url(#clip1_2_2)">
<path d="M2.9808 23.1418L5.51719 23.1635H6.25426L6.52524 23.1418L10.1022 23.2069C10.7417 23.2502 11.0886 23.6404 11.1644 24.3883C11.197 24.681 11.2295 24.9845 11.2728 25.2772C11.3704 25.9817 11.8798 26.3394 12.812 26.3394C13.7442 26.3394 14.3295 25.9058 14.5788 25.0279C14.7631 24.3558 14.8498 23.5429 14.8498 22.6107V22.0579H14.7848L14.698 19.0554C14.6439 17.0935 14.6113 14.1886 14.6113 10.3515C14.6113 6.51439 14.6439 3.7287 14.698 2.00526L14.6764 1.98358C14.6764 1.87519 14.7197 1.78847 14.8064 1.73428L15.0774 1.69092L16.118 1.7126H23.8681L25.4181 1.69092H27.4884C27.5968 1.69092 27.6835 1.75595 27.7377 1.88602C27.7052 2.20036 27.6943 2.66645 27.6943 3.30597V3.64199L27.6727 3.99968L27.6293 5.08361C27.5317 7.76091 27.4775 11.7498 27.4775 17.0285V19.3589C27.4775 21.3534 27.4775 23.0118 27.4559 24.345C27.4342 25.6782 27.109 27.0115 26.4695 28.3447C25.83 29.6779 25.0279 30.7402 24.0523 31.5423C23.0876 32.3444 21.9712 32.9947 20.6922 33.5259C18.4484 34.4472 16.1072 34.9024 13.6683 34.9024C11.2295 34.9024 9.1917 34.6531 7.55497 34.1654C6.10251 33.7968 4.89935 33.2332 3.94549 32.4853C2.99164 31.7265 2.25457 31.0111 1.73428 30.3391C0.59616 28.7999 0.0216785 26.9247 0.0216785 24.6918V24.139L0 23.8897C0 23.3369 0.0867141 23.066 0.249303 23.066L2.9808 23.1527V23.1418Z" fill="black"/>
<path d="M30.2524 17.7439L30.2958 17.2778C30.4692 15.511 30.686 13.9501 30.9678 12.5844C31.2497 11.2186 31.7049 9.95044 32.3444 8.75812C33.8511 6.14586 35.9647 4.17311 38.6637 2.8182C41.3627 1.47413 44.2785 0.79126 47.411 0.79126C50.5436 0.79126 53.3726 1.41994 55.9307 2.67729C57.459 3.4252 58.6513 4.36822 59.5076 5.51718C61.1552 7.57664 62.25 9.47351 62.7702 11.2078C63.2905 12.9421 63.5507 14.9473 63.5507 17.2236C63.5507 22.2747 62.5101 26.1335 60.4181 28.7783L59.4426 30.0681C58.131 31.5965 56.2775 32.7671 53.8712 33.5909C51.4649 34.4147 49.0911 34.8482 46.739 34.8699C42.7068 34.8699 39.3899 34.0245 36.8102 32.3335C32.4311 29.4936 30.2524 24.6268 30.2524 17.7222V17.7439ZM42.4249 17.5704C42.4249 17.5704 42.4249 17.6246 42.4033 17.6788V17.7439C42.3491 18.34 42.3165 19.0012 42.3165 19.7383C42.3165 20.4754 42.3816 21.245 42.5008 22.0687C42.62 22.8925 42.8152 23.7055 43.097 24.5293C43.368 25.353 43.8015 26.0142 44.376 26.5237C44.9938 27.0656 45.6876 27.3258 46.4571 27.3258C47.2267 27.3258 47.8771 27.2174 48.4082 27.0006C48.9393 26.7838 49.3837 26.502 49.7414 26.166C50.0991 25.83 50.4135 25.3639 50.6845 24.7894C51.3565 23.2502 51.7034 20.8656 51.7034 17.6355C51.7034 14.4054 51.324 12.0424 50.5761 10.72C49.8173 9.39764 48.6792 8.73644 47.1617 8.73644C46.4029 8.73644 45.7309 8.92071 45.1564 9.28925C44.582 9.65778 44.1592 10.0372 43.8666 10.4274C43.5739 10.8176 43.2812 11.663 42.9777 12.9421C42.6742 14.232 42.5225 15.4134 42.5225 16.4974L42.4358 17.5813L42.4249 17.5704Z" fill="black"/>
<path d="M72.9699 1.32238L75.6581 1.27902C77.8151 1.27902 78.899 1.3549 78.899 1.50665C78.8665 1.56084 78.8557 1.63672 78.8557 1.73427C78.6605 2.2112 78.4112 2.89407 78.1186 3.78289C77.8259 4.67171 77.6308 5.23536 77.5441 5.47382L76.9263 7.18642C75.8965 10.2756 75.0294 12.7036 74.3248 14.4704C73.7287 14.9365 72.3087 15.1641 70.065 15.1641H68.1356L67.8646 15.1858H66.423C65.7727 15.1858 65.3933 15.1316 65.2849 15.0124C65.2849 15.0124 65.0356 14.8823 65.2199 14.1127C65.2849 13.8526 65.3391 13.6466 65.3716 13.5057L66.1737 10.5466C66.1195 10.5358 68.5475 2.78568 68.7751 1.31154C68.9486 1.3007 69.1653 1.28986 69.4472 1.28986H72.9591L72.9699 1.32238Z" fill="black"/>
<path d="M81.0018 24.9195L92.1988 24.7244C92.4806 24.7244 92.719 24.9628 92.9033 25.4398C93.0984 25.9167 93.2827 26.2961 93.467 26.5779C93.9005 27.2499 94.6268 27.5968 95.6348 27.5968C96.6429 27.5968 97.4558 27.3583 98.0845 26.8922C98.7023 26.4153 99.0167 25.8083 99.0167 25.0604C99.0167 24.3125 98.8216 23.803 98.4422 23.5212C98.0628 23.2394 97.6401 22.9792 97.1957 22.7191C96.7404 22.459 96.0792 22.253 95.1904 22.1121C94.3124 21.9712 93.8247 21.8845 93.7379 21.8628H93.7813L92.5781 21.5485C91.7977 21.4075 91.1474 21.2558 90.6271 21.0824C87.2561 20.1827 84.8172 19.0446 83.3106 17.6788C81.8039 16.3131 81.056 14.4704 81.056 12.1508C81.056 10.4707 81.3703 8.96407 81.9882 7.62C82.606 6.27593 83.419 5.18116 84.427 4.3357C87.3211 1.89687 91.3099 0.672028 96.4044 0.672028C100.458 0.672028 103.634 1.4091 105.954 2.8724H105.932C107.417 3.94549 108.425 4.9969 108.978 6.03747C109.531 7.07804 109.878 8.35707 110.019 9.87457L109.466 10.4274C105.759 10.5683 102.464 10.6442 99.602 10.6442C98.7457 10.6442 98.2254 10.3949 98.052 9.88541C97.9761 9.66862 97.9002 9.46267 97.8243 9.24589C97.6292 8.73644 96.9897 8.48714 95.9166 8.48714H95.8299C94.9953 8.48714 94.2799 8.68225 93.6946 9.07246C93.0984 9.46267 92.8058 9.84205 92.7949 10.1997C92.7949 10.5683 92.8708 10.8718 93.0225 11.1102C93.1851 11.3487 93.3586 11.5438 93.5428 11.6847C93.7271 11.8256 94.0089 11.9665 94.3883 12.1183C94.7677 12.27 95.0603 12.3676 95.2446 12.411C95.4397 12.4652 95.7324 12.541 96.1443 12.6494L96.8813 12.8445C97.174 12.9312 98.0411 13.1372 99.4719 13.484C100.903 13.8309 102.095 14.1452 103.06 14.4596V14.4379C106.062 15.4568 108.122 16.725 109.206 18.2425C110.3 19.76 110.842 21.5268 110.842 23.5429C110.842 28.9192 107.634 32.4094 101.206 34.0028C99.3418 34.4689 97.3583 34.8049 95.2338 35C92.6323 35 90.0634 34.6206 87.527 33.8619C84.9906 33.1031 83.2889 31.8566 82.4217 30.1332C81.8473 29.2985 81.457 28.5398 81.2619 27.8352C81.0668 27.1307 80.9042 26.1551 80.7742 24.8978C80.8175 24.9086 80.8826 24.9195 80.9693 24.9195H81.0018Z" fill="black"/>
<path d="M129.302 16.2481C127.112 18.7844 124.435 20.0526 121.27 20.0526C119.611 20.0526 117.855 19.5323 116.024 18.5026C113.942 17.2127 112.501 15.1208 111.688 12.2484C111.493 11.5221 111.341 10.7959 111.243 10.048C111.363 7.2623 112.284 4.95353 114.007 3.1217C114.95 2.11365 116.089 1.33322 117.411 0.812934C118.733 0.28181 120.045 0.0216675 121.346 0.0216675C122.646 0.0216675 123.904 0.28181 125.139 0.812934C126.364 1.34406 127.437 2.05945 128.348 2.95911C129.258 3.85877 130.006 4.94269 130.581 6.20005C131.155 7.45741 131.469 8.79063 131.535 10.1997C131.513 11.3053 131.307 12.3893 130.917 13.4515C130.526 14.5138 129.995 15.4568 129.312 16.2697L129.302 16.2481ZM121.497 2.48218H121.324C120.294 2.48218 119.308 2.69897 118.376 3.1217C117.433 3.54443 116.631 4.12975 115.937 4.87766C115.254 5.61473 114.766 6.3518 114.484 7.08887C114.203 7.82594 113.986 8.74728 113.845 9.86372C113.845 11.1753 114.181 12.4218 114.853 13.5924C115.525 14.7631 116.435 15.7061 117.574 16.4106C118.712 17.1152 119.861 17.4729 121.01 17.4729C122.159 17.4729 123.199 17.2669 124.12 16.8659C125.042 16.4648 125.855 15.912 126.538 15.2292C127.22 14.5463 127.773 13.7008 128.196 12.7253C128.608 11.7498 128.825 10.7417 128.825 9.70113C128.825 8.66056 128.63 7.70671 128.229 6.82873C127.827 5.95075 127.296 5.192 126.635 4.57416C125.974 3.94548 125.194 3.44688 124.294 3.07834C123.405 2.69897 122.473 2.50386 121.508 2.49302L121.497 2.48218ZM125.378 11.197H125.551L125.714 11.1861C126.093 11.1861 126.31 11.2728 126.364 11.4354C126.093 12.6169 125.54 13.6141 124.695 14.4054C123.86 15.1966 122.906 15.5977 121.844 15.5977C119.666 15.5977 118.072 14.7522 117.064 13.0505C116.5 12.1075 116.208 11.0452 116.175 9.87456C116.24 8.84483 116.555 7.91265 117.097 7.05635C117.649 6.21089 118.332 5.54969 119.156 5.09444C119.969 4.62836 120.836 4.40073 121.725 4.40073C122.972 4.40073 123.958 4.75843 124.706 5.46298C125.454 6.17837 125.952 7.13223 126.212 8.32455C126.18 8.40042 125.985 8.43294 125.627 8.43294H125.345L123.503 8.4221L123.405 8.32455C123.102 7.38153 122.495 6.91544 121.584 6.91544C120.403 6.91544 119.655 7.59832 119.351 8.96406C119.275 9.28924 119.243 9.6361 119.243 9.97211C119.243 10.7634 119.427 11.4354 119.796 11.9991C120.164 12.5627 120.695 12.8337 121.389 12.8337C122.083 12.8337 122.527 12.6603 122.722 12.3134C123.026 11.7606 123.275 11.3921 123.481 11.2078C123.709 11.1861 124.001 11.1861 124.381 11.1861H125.367L125.378 11.197ZM126.245 8.32455V8.34623H126.234L126.245 8.32455Z" fill="black"/>
</g>
</g>
<defs>
<clipPath id="clip0_2_2">
<rect width="132" height="35" fill="white"/>
</clipPath>
<clipPath id="clip1_2_2">
<rect width="131.524" height="35" fill="white"/>
</clipPath>
</defs>
</svg>
