<svg width="150" height="150" viewBox="0 0 150 150" fill="none" xmlns="http://www.w3.org/2000/svg">
<rect width="150" height="150" fill="#F5F5F5"/>
<rect width="150" height="150" fill="white"/>
<path d="M125.28 74.4859C125.28 102.512 102.56 125.231 74.5344 125.231C46.5085 125.231 23.789 102.512 23.789 74.4859C23.789 46.46 46.5085 23.7405 74.5344 23.7405C102.56 23.7405 125.28 46.46 125.28 74.4859Z" fill="#EEF866" stroke="black" stroke-width="3.67215"/>
<path d="M56.9543 75.4336C60.4294 75.4336 63.2465 69.5341 63.2465 62.2568C63.2465 54.9795 60.4294 49.0801 56.9543 49.0801C53.4792 49.0801 50.6621 54.9795 50.6621 62.2568C50.6621 69.5341 53.4792 75.4336 56.9543 75.4336Z" fill="black"/>
<path d="M92.1156 75.4336C95.5907 75.4336 98.4078 69.5341 98.4078 62.2568C98.4078 54.9795 95.5907 49.0801 92.1156 49.0801C88.6405 49.0801 85.8234 54.9795 85.8234 62.2568C85.8234 69.5341 88.6405 75.4336 92.1156 75.4336Z" fill="black"/>
<path d="M109.571 90.199C104.749 88.3873 100.464 84.0949 98.6518 79.28L94.7357 80.7502C95.5649 82.9522 96.8192 85.0635 98.3661 86.9658C84.841 99.0973 64.2223 99.0973 50.6972 86.9658C52.2441 85.0705 53.4984 82.9591 54.3276 80.7572L50.4115 79.2869C48.5998 84.1089 44.3074 88.3943 39.4924 90.206L40.9627 94.1221C43.4015 93.2023 45.7289 91.7599 47.7775 89.976C55.3519 96.8257 64.94 100.254 74.5282 100.254C84.1163 100.254 93.7045 96.8257 101.279 89.976C103.327 91.7599 105.655 93.2023 108.094 94.1221L109.564 90.206L109.571 90.199Z" fill="black"/>
<path d="M77.6356 13.3893L76.1792 1.00002L78.3394 1.15331L79.1895 9.71017L81.1475 1.35539L83.3982 1.51566L80.2068 13.5775L77.6426 13.3963L77.6356 13.3893Z" fill="black"/>
<path d="M88.9244 15.201C88.0533 14.992 87.3983 14.6645 86.9663 14.2255C86.5343 13.7865 86.2765 13.25 86.1928 12.6159C86.1092 11.9818 86.1719 11.2571 86.367 10.4418L87.4401 6.00312C87.6352 5.18785 87.914 4.51891 88.2763 3.9963C88.6387 3.47369 89.1055 3.11832 89.6908 2.93714C90.2762 2.75597 91.0009 2.76991 91.8719 2.98592C92.7568 3.20193 93.4118 3.52247 93.8578 3.95449C94.2968 4.38652 94.5616 4.91609 94.6382 5.54322C94.7218 6.17036 94.6661 6.88807 94.464 7.70334L93.3909 12.142C93.1958 12.9573 92.9171 13.6263 92.5547 14.1558C92.1924 14.6854 91.7186 15.0478 91.1263 15.2359C90.534 15.424 89.8023 15.4101 88.9174 15.201H88.9244ZM89.3494 13.452C89.663 13.5287 89.9069 13.5148 90.095 13.4033C90.2762 13.2987 90.4225 13.1315 90.527 12.9016C90.6315 12.6716 90.7221 12.4208 90.7848 12.149L92.1506 6.51876C92.2203 6.24701 92.2551 5.98222 92.2621 5.73833C92.2691 5.49445 92.2203 5.27844 92.1018 5.10423C91.9903 4.93003 91.7743 4.79763 91.4608 4.72099C91.1681 4.6513 90.9312 4.66524 90.75 4.77673C90.5688 4.88822 90.4225 5.04849 90.318 5.27147C90.2134 5.49445 90.1229 5.7453 90.0602 6.01706L88.6944 11.6473C88.6247 11.9191 88.5899 12.1838 88.5759 12.4347C88.562 12.6856 88.6108 12.9016 88.7223 13.0758C88.8338 13.2569 89.0428 13.3824 89.3494 13.452Z" fill="black"/>
<path d="M96.9442 17.5423L100.944 7.94724L99.2019 7.22255L99.9196 5.50839L105.703 7.91936L104.985 9.63352L103.271 8.91581L99.2716 18.5109L96.9512 17.5423H96.9442Z" fill="black"/>
<path d="M103.633 20.6153L109.877 10.0725L114.469 12.7971L113.591 14.2813L111.145 12.8319L109.487 15.6331L111.375 16.748L110.49 18.2461L108.602 17.1312L106.644 20.4411L109.117 21.9044L108.253 23.3607L103.633 20.6223V20.6153Z" fill="black"/>
<path d="M110.943 25.2073L118.761 15.7724L121.068 17.6817C121.869 18.3437 122.406 18.9638 122.684 19.5422C122.963 20.1205 123.012 20.7059 122.831 21.2982C122.657 21.8905 122.28 22.5315 121.716 23.2144L118.866 26.6497C118.288 27.3465 117.716 27.8482 117.159 28.1409C116.601 28.4405 116.009 28.5102 115.396 28.3569C114.783 28.2036 114.079 27.8064 113.298 27.1584L110.943 25.2073ZM113.974 25.4581L114.385 25.7926C114.741 26.0853 115.04 26.2455 115.291 26.2525C115.535 26.2664 115.772 26.1759 115.988 25.9877C116.204 25.7996 116.455 25.5418 116.727 25.2143L119.953 21.326C120.225 20.9985 120.413 20.7198 120.531 20.4759C120.65 20.232 120.664 20.0091 120.587 19.7861C120.51 19.5701 120.301 19.3192 119.96 19.0335L119.563 18.706L113.974 25.4512V25.4581Z" fill="black"/>
<path d="M122.51 36.3772L132.489 29.2627L134.746 32.4263C135.171 33.0255 135.408 33.5969 135.45 34.1335C135.492 34.67 135.367 35.1856 135.074 35.6734C134.781 36.1612 134.328 36.6211 133.722 37.0601C133.004 37.5687 132.363 37.8475 131.785 37.8893C131.207 37.9311 130.691 37.8057 130.224 37.506C129.757 37.2064 129.332 36.7883 128.942 36.2448L128.28 35.318L123.96 38.4049L122.51 36.3702V36.3772ZM129.708 34.3077L130.217 35.0254C130.426 35.318 130.635 35.5131 130.844 35.6107C131.053 35.7013 131.283 35.7083 131.527 35.6107C131.771 35.5201 132.057 35.3599 132.377 35.1369C132.684 34.9209 132.921 34.7188 133.095 34.5237C133.269 34.3355 133.36 34.1195 133.36 33.8826C133.36 33.6457 133.248 33.36 133.004 33.0186L132.503 32.3148L129.708 34.3077Z" fill="black"/>
<path d="M128.21 44.9898L139.164 39.492L141.561 44.2651L140.021 45.0386L138.746 42.4952L135.84 43.9516L136.823 45.9096L135.269 46.69L134.286 44.732L130.851 46.4531L132.14 49.0244L130.628 49.7839L128.217 44.9828L128.21 44.9898Z" fill="black"/>
<path d="M132.754 56.1109C132.482 55.2539 132.426 54.5292 132.572 53.9299C132.719 53.3307 133.046 52.8359 133.555 52.4387C134.057 52.0416 134.712 51.7141 135.506 51.4632L139.861 50.0835C140.662 49.8327 141.373 49.7212 142.014 49.763C142.648 49.7978 143.199 50.0208 143.652 50.4249C144.105 50.8291 144.474 51.4632 144.739 52.3203C145.01 53.1843 145.08 53.916 144.934 54.5222C144.787 55.1215 144.474 55.6232 143.979 56.0134C143.484 56.4106 142.836 56.7311 142.042 56.982L137.687 58.3616C136.886 58.6125 136.168 58.724 135.527 58.6891C134.886 58.6543 134.335 58.4313 133.868 58.0272C133.402 57.623 133.032 56.982 132.754 56.1179V56.1109ZM134.468 55.5674C134.565 55.874 134.705 56.0761 134.893 56.1806C135.081 56.2782 135.297 56.32 135.548 56.2921C135.799 56.2642 136.056 56.2085 136.328 56.1249L141.854 54.3759C142.126 54.2923 142.363 54.1877 142.579 54.0693C142.795 53.9508 142.948 53.7906 143.045 53.6024C143.136 53.4143 143.136 53.1634 143.045 52.8568C142.955 52.5711 142.815 52.376 142.634 52.2715C142.446 52.1739 142.23 52.1321 141.986 52.16C141.742 52.1879 141.485 52.2367 141.213 52.3272L135.687 54.0762C135.415 54.1599 135.171 54.2644 134.948 54.3828C134.725 54.5013 134.572 54.6546 134.475 54.8427C134.384 55.0309 134.384 55.2748 134.475 55.5744L134.468 55.5674Z" fill="black"/>
<path d="M134.795 63.2254L146.941 61.6157L147.449 65.4691C147.547 66.2008 147.484 66.814 147.275 67.3087C147.059 67.8034 146.711 68.2006 146.216 68.4933C145.728 68.786 145.108 68.9811 144.369 69.0786C143.498 69.1971 142.802 69.1344 142.272 68.9044C141.743 68.6745 141.345 68.3191 141.067 67.8313C140.788 67.3436 140.614 66.7791 140.53 66.1172L140.384 64.9953L135.123 65.6921L134.795 63.2184V63.2254ZM142.126 64.7723L142.244 65.6433C142.293 66.0057 142.384 66.2705 142.53 66.4516C142.669 66.6328 142.871 66.7373 143.129 66.7791C143.387 66.8209 143.714 66.807 144.105 66.7582C144.474 66.7095 144.781 66.6398 145.024 66.5492C145.268 66.4586 145.443 66.3123 145.561 66.1032C145.679 65.8942 145.707 65.5876 145.652 65.1765L145.54 64.3194L142.133 64.7723H142.126Z" fill="black"/>
<path d="M135.792 73.4755L148.041 73.7264L147.993 76.2209L137.436 76.0049L137.38 78.8758L135.687 78.841L135.798 73.4685L135.792 73.4755Z" fill="black"/>
<path d="M135.366 81.9L147.47 83.8301L146.627 89.105L144.926 88.8333L145.372 86.0251L142.16 85.5095L141.812 87.6765L140.091 87.4048L140.439 85.2377L136.641 84.6315L136.188 87.4675L134.516 87.2027L135.359 81.9H135.366Z" fill="black"/>
<path d="M141.415 92.5264H142.181C142.091 92.8957 142.154 93.1674 142.377 93.3417C142.6 93.5159 142.906 93.6622 143.317 93.7737L143.582 92.826L145.582 93.3765L145.031 95.3763C144.746 95.2997 144.481 95.223 144.216 95.1464C143.958 95.0697 143.707 94.9931 143.464 94.9164C142.648 94.6726 142.07 94.3729 141.708 94.0245C141.352 93.6761 141.255 93.1744 141.422 92.5333L141.415 92.5264Z" fill="black"/>
<path d="M130.948 97.9267C131.234 97.2299 131.603 96.6933 132.049 96.331C132.495 95.9686 133.032 95.7735 133.645 95.7526C134.258 95.7247 134.976 95.8571 135.798 96.1498L135.317 98.2751C134.844 98.1009 134.432 97.9894 134.091 97.9406C133.743 97.8918 133.464 97.9197 133.241 98.0173C133.018 98.1148 132.858 98.289 132.76 98.5329C132.642 98.8325 132.649 99.0694 132.788 99.2576C132.934 99.4388 133.122 99.5851 133.366 99.6826C133.84 99.8778 134.286 99.9265 134.704 99.829C135.122 99.7314 135.568 99.5642 136.049 99.3273L137.554 98.5678C138.084 98.296 138.62 98.1148 139.178 98.0312C139.735 97.9476 140.341 98.0382 140.996 98.3099C141.93 98.6932 142.536 99.2576 142.808 100.01C143.08 100.763 143.024 101.613 142.634 102.567C142.404 103.139 142.118 103.564 141.784 103.85C141.449 104.135 141.08 104.316 140.69 104.393C140.293 104.463 139.895 104.463 139.498 104.393C139.094 104.323 138.711 104.219 138.342 104.087L138.857 101.989C139.213 102.115 139.526 102.205 139.805 102.268C140.084 102.331 140.32 102.331 140.523 102.268C140.725 102.205 140.878 102.045 140.975 101.794C141.087 101.522 141.066 101.278 140.92 101.069C140.773 100.853 140.578 100.7 140.334 100.602C139.93 100.435 139.568 100.393 139.233 100.47C138.899 100.547 138.53 100.686 138.119 100.888L136.641 101.627C136.035 101.933 135.401 102.149 134.732 102.275C134.063 102.4 133.345 102.303 132.572 101.989C132.042 101.773 131.61 101.453 131.276 101.034C130.948 100.616 130.746 100.143 130.684 99.606C130.621 99.0694 130.704 98.512 130.948 97.9267Z" fill="black"/>
<path d="M125.604 108.393L135.554 115.549L132.537 119.751L131.164 118.761L132.725 116.587L130.035 114.65L128.711 116.49L127.297 115.472L128.621 113.633L124.147 110.421L125.604 108.393Z" fill="black"/>
<path d="M121.256 114.281L128.44 124.489L126.523 126.482L116.057 119.688L117.66 118.023L119.904 119.577L121.249 118.183L119.632 115.981L121.256 114.288V114.281ZM122.189 119.395L121.172 120.455L125.248 123.353L122.189 119.402V119.395Z" fill="black"/>
<path d="M112.56 122.545L121.827 130.893L120.106 132.203L113.828 126.336L117.869 133.903L116.072 135.269L110.511 124.099L112.56 122.545Z" fill="black"/>
<path d="M102.86 128.642C103.654 128.224 104.358 128.036 104.971 128.078C105.584 128.12 106.135 128.356 106.609 128.782C107.09 129.207 107.522 129.792 107.912 130.531L110.03 134.579C110.42 135.318 110.65 136.007 110.727 136.642C110.804 137.276 110.678 137.847 110.358 138.37C110.037 138.892 109.48 139.359 108.685 139.777C107.884 140.195 107.173 140.39 106.553 140.356C105.933 140.321 105.389 140.091 104.916 139.68C104.442 139.262 104.01 138.683 103.619 137.945L101.501 133.896C101.111 133.158 100.881 132.468 100.804 131.827C100.728 131.186 100.846 130.607 101.167 130.071C101.487 129.541 102.045 129.06 102.853 128.642H102.86ZM103.696 130.238C103.41 130.384 103.236 130.565 103.167 130.76C103.097 130.956 103.104 131.179 103.167 131.422C103.236 131.666 103.334 131.91 103.466 132.161L106.156 137.29C106.288 137.54 106.428 137.763 106.588 137.952C106.748 138.14 106.922 138.265 107.124 138.328C107.327 138.384 107.57 138.342 107.856 138.189C108.121 138.049 108.288 137.875 108.358 137.68C108.427 137.485 108.421 137.262 108.358 137.025C108.288 136.788 108.191 136.544 108.058 136.293L105.368 131.165C105.236 130.914 105.097 130.691 104.936 130.496C104.783 130.301 104.602 130.168 104.4 130.112C104.198 130.057 103.961 130.099 103.682 130.245L103.696 130.238Z" fill="black"/>
<path d="M96.1986 131.924L99.8638 143.617L96.8327 144.564C96.0453 144.808 95.3415 144.934 94.7213 144.934C94.1011 144.934 93.5716 144.753 93.1256 144.397C92.6797 144.042 92.3312 143.463 92.0804 142.662C91.9271 142.181 91.8365 141.742 91.8017 141.345C91.7668 140.948 91.8086 140.579 91.9341 140.244C92.0595 139.91 92.2755 139.596 92.603 139.31L89.1956 134.112L91.6344 133.346L94.6377 138.223L95.4739 137.959L93.8155 132.663L96.1986 131.917V131.924ZM95.9198 139.387L95.23 139.603C94.8467 139.722 94.561 139.882 94.3799 140.077C94.1987 140.272 94.1011 140.509 94.0872 140.795C94.0733 141.08 94.129 141.408 94.2475 141.784C94.4147 142.321 94.6447 142.704 94.9304 142.927C95.2161 143.15 95.6272 143.178 96.1707 143.004L96.979 142.753L95.9268 139.387H95.9198Z" fill="black"/>
<path d="M85.8509 134.732L87.8577 146.822L85.4119 147.226L83.4051 135.136L85.8509 134.732Z" fill="black"/>
<path d="M78.646 135.645L79.1268 146.028L81.0151 145.937L81.0987 147.798L74.8414 148.09L74.7578 146.23L76.6182 146.146L76.1374 135.764L78.646 135.645Z" fill="black"/>
<path d="M71.2946 135.729L70.1797 147.93L64.8631 147.442L65.0164 145.728L67.8524 145.986L68.1451 142.746L65.9571 142.544L66.1173 140.809L68.2984 141.011L68.6468 137.185L65.7829 136.927L65.9362 135.241L71.2877 135.729H71.2946Z" fill="black"/>
<path d="M57.4837 133.457L53.4282 145.017L50.5016 143.993C49.9999 143.819 49.547 143.61 49.1498 143.373C48.7526 143.136 48.4251 142.85 48.1743 142.516C47.9234 142.181 47.7771 141.791 47.7353 141.345C47.6935 140.899 47.784 140.363 48.0001 139.749C48.1603 139.283 48.3694 138.906 48.6202 138.628C48.8711 138.349 49.1498 138.154 49.4634 138.049C49.7769 137.945 50.1253 137.924 50.5086 137.986C50.0835 137.763 49.763 137.478 49.54 137.136C49.317 136.795 49.1986 136.398 49.1846 135.952C49.1707 135.506 49.2613 135.011 49.4494 134.461C49.6515 133.882 49.9024 133.401 50.202 133.025C50.5016 132.649 50.8431 132.37 51.2193 132.196C51.6026 132.022 52.0276 131.938 52.4945 131.945C52.9614 131.952 53.47 132.057 54.0205 132.252L57.4767 133.464L57.4837 133.457ZM52.7105 139.526L52.1252 139.324C51.7141 139.178 51.3866 139.129 51.1357 139.178C50.8849 139.227 50.6758 139.352 50.5086 139.568C50.3414 139.784 50.195 140.063 50.0766 140.418C49.9511 140.767 49.9163 141.073 49.9581 141.331C49.9999 141.589 50.1323 141.805 50.3344 141.986C50.5434 142.167 50.8361 142.321 51.2054 142.453L51.6305 142.606L52.7105 139.54V139.526ZM54.5501 134.286L53.8951 134.056C53.3028 133.847 52.8499 133.854 52.5224 134.07C52.1949 134.286 51.9301 134.691 51.721 135.283C51.5608 135.743 51.4841 136.119 51.4981 136.433C51.505 136.739 51.6096 136.997 51.7907 137.213C51.9789 137.422 52.2715 137.596 52.6617 137.736L53.2749 137.952L54.5571 134.3L54.5501 134.286Z" fill="black"/>
<path d="M44.4949 127.708C45.3032 128.168 45.8536 128.656 46.1463 129.186C46.439 129.715 46.5226 130.294 46.4111 130.914C46.2926 131.541 46.0279 132.224 45.6028 132.969L41.4777 140.265L39.3315 139.053L43.6308 131.457C43.7771 131.193 43.9095 130.921 44.0141 130.649C44.1186 130.37 44.1465 130.119 44.0977 129.883C44.0489 129.646 43.8886 129.45 43.6029 129.29C43.3103 129.123 43.0525 129.088 42.8295 129.165C42.6065 129.248 42.4044 129.402 42.2233 129.639C42.0421 129.876 41.8818 130.119 41.7285 130.384L37.4292 137.979L35.283 136.767L39.4081 129.471C39.8332 128.726 40.2791 128.14 40.753 127.722C41.2268 127.304 41.7703 127.081 42.3696 127.053C42.9688 127.026 43.6796 127.249 44.4879 127.701L44.4949 127.708Z" fill="black"/>
<path d="M38.1263 123.89L30.3011 133.318L27.8553 131.29C27.2212 130.76 26.7334 130.238 26.399 129.715C26.0645 129.193 25.9251 128.649 25.9878 128.085C26.0436 127.52 26.3432 126.914 26.8798 126.266C27.2003 125.876 27.5208 125.562 27.8344 125.318C28.148 125.074 28.4824 124.914 28.8308 124.831C29.1792 124.747 29.5625 124.768 29.9736 124.886L32.4891 119.207L34.4541 120.838L31.9874 126.008L32.6633 126.566L36.2101 122.294L38.1333 123.89H38.1263ZM31.7087 127.708L31.1512 127.242C30.8377 126.984 30.552 126.83 30.2941 126.782C30.0363 126.733 29.7785 126.782 29.5346 126.928C29.2907 127.074 29.0399 127.297 28.789 127.597C28.4267 128.029 28.2316 128.426 28.2037 128.789C28.1758 129.151 28.3779 129.513 28.8099 129.869L29.4649 130.412L31.7156 127.701L31.7087 127.708Z" fill="black"/>
<path d="M28.1404 114.218C28.677 114.852 28.9696 115.458 29.0114 116.058C29.0602 116.65 28.9069 117.235 28.5515 117.807C28.1962 118.378 27.6944 118.936 27.0534 119.486L23.9247 122.141C23.2558 122.705 22.6077 123.116 21.9876 123.367C21.3674 123.618 20.7542 123.653 20.148 123.472C19.5417 123.291 18.9494 122.852 18.3641 122.162C17.7997 121.493 17.4583 120.873 17.3537 120.294C17.2492 119.716 17.3259 119.173 17.5907 118.657C17.8555 118.141 18.2666 117.646 18.831 117.173L19.3745 116.713L20.9493 118.573L20.2943 119.131C20.0504 119.34 19.8414 119.542 19.6811 119.73C19.5208 119.918 19.4302 120.12 19.4163 120.322C19.4024 120.524 19.4999 120.747 19.709 120.998C19.925 121.249 20.148 121.381 20.3779 121.388C20.6079 121.395 20.8378 121.326 21.0678 121.179C21.2977 121.04 21.5277 120.866 21.7576 120.671L25.8967 117.159C26.1615 116.936 26.3705 116.713 26.5447 116.49C26.7119 116.267 26.8025 116.044 26.8095 115.821C26.8165 115.598 26.7189 115.368 26.5168 115.124C26.3148 114.887 26.0987 114.755 25.8618 114.727C25.6249 114.699 25.381 114.755 25.1302 114.88C24.8793 115.013 24.6145 115.187 24.3428 115.417L23.3533 116.26L24.1268 117.173L22.9701 118.148L20.7403 115.514L25.5413 111.445L26.6005 112.692L25.8549 113.521C26.2451 113.403 26.6353 113.389 27.0255 113.48C27.4157 113.57 27.792 113.821 28.1474 114.239L28.1404 114.218Z" fill="black"/>
<path d="M23.4373 108.358L12.9642 114.727L10.1909 110.163L11.6612 109.264L13.1384 111.696L15.9187 110.002L14.7759 108.128L16.2601 107.222L17.4029 109.097L20.6849 107.097L19.1937 104.644L20.6431 103.766L23.4303 108.358H23.4373Z" fill="black"/>
<path d="M19.138 100.874L7.78689 105.501L6.58837 102.56C6.27481 101.794 6.09364 101.104 6.04486 100.484C5.99608 99.8638 6.12848 99.3203 6.44901 98.8465C6.76954 98.3726 7.31306 97.9755 8.09349 97.6619C8.56035 97.4737 8.99238 97.3413 9.38259 97.2786C9.77281 97.209 10.1421 97.2229 10.4905 97.3135C10.8389 97.4041 11.1664 97.5992 11.473 97.8988L16.3647 94.0733L17.3332 96.4425L12.7203 99.8429L13.0478 100.658L18.1903 98.5608L19.131 100.874H19.138ZM11.6821 101.216L11.4103 100.54C11.257 100.163 11.0758 99.8987 10.8668 99.7314C10.6578 99.5642 10.4139 99.4875 10.1282 99.5015C9.84249 99.5154 9.52195 99.5921 9.15264 99.7454C8.63003 99.9614 8.26769 100.219 8.07258 100.519C7.87748 100.825 7.88445 101.237 8.09349 101.759L8.41402 102.547L11.6751 101.216H11.6821Z" fill="black"/>
<path d="M14.2879 85.5304L2.19123 87.4745L1.80101 85.0217L13.8977 83.0776L14.2879 85.5304Z" fill="black"/>
<path d="M13.4103 79.3636L1.16033 79.6702L1.11852 77.9282L7.43164 75.0433L1.04884 75.2036L1.00006 73.148L13.25 72.8414L13.2918 74.5068L6.58153 77.3986L13.3546 77.2313L13.4103 79.3636Z" fill="black"/>
<path d="M14.1976 63.6086L2.26814 60.7935L2.66533 59.1003L9.50803 57.9157L3.29246 56.4454L3.76629 54.4455L15.6957 57.2607L15.3125 58.8773L8.0935 59.9713L14.6923 61.5321L14.2045 63.6086H14.1976Z" fill="black"/>
<path d="M16.9361 53.6163L5.59203 48.9825L7.61279 44.0352L9.20849 44.6902L8.1354 47.3241L11.1456 48.5575L11.9748 46.5298L13.5845 47.1848L12.7553 49.2125L16.309 50.6688L17.396 48.007L18.9639 48.6481L16.9292 53.6233L16.9361 53.6163Z" fill="black"/>
<path d="M21.0055 44.6414L9.80077 39.4292L10.9296 37.6384L17.7096 40.9274L11.9679 36.0218L12.8667 34.6003L19.7652 37.6384L13.905 32.928L15.0199 31.165L24.5314 39.046L23.4026 40.8368L16.2045 37.6942L22.1553 42.8018L20.9985 44.6275L21.0055 44.6414Z" fill="black"/>
<path d="M32.4959 30.0223L29.2278 26.4267L22.4827 22.5594L24.2178 20.9846L28.092 23.291L26.0992 19.2774L27.7785 17.7514L31.0047 24.8101L34.2728 28.4057L32.4959 30.0223Z" fill="black"/>
<path d="M41.2618 23.3468C40.5093 23.8346 39.8264 24.0854 39.2062 24.1063C38.593 24.1203 38.0216 23.9391 37.506 23.5628C36.9904 23.1865 36.5026 22.643 36.0427 21.9392L33.5481 18.1068C33.0882 17.403 32.7955 16.741 32.6631 16.1208C32.5307 15.5007 32.5935 14.9154 32.8652 14.3649C33.137 13.8144 33.6456 13.2988 34.3982 12.811C35.1577 12.3162 35.8476 12.0584 36.4677 12.0375C37.0879 12.0166 37.6523 12.1908 38.161 12.5601C38.6766 12.9294 39.1574 13.466 39.6173 14.1698L42.1119 18.0022C42.5718 18.706 42.8645 19.368 43.0038 19.9951C43.1432 20.6223 43.0735 21.2145 42.8087 21.772C42.5439 22.3294 42.0283 22.859 41.2688 23.3538L41.2618 23.3468ZM40.2793 21.8347C40.5511 21.6605 40.7113 21.4654 40.7531 21.2633C40.8019 21.0612 40.774 20.8383 40.6835 20.6014C40.5929 20.3644 40.4674 20.1345 40.3141 19.8976L37.1506 15.0408C36.9973 14.8039 36.8301 14.5948 36.6559 14.4206C36.4817 14.2464 36.2935 14.1349 36.0845 14.1001C35.8754 14.0583 35.6385 14.128 35.3668 14.3022C35.1159 14.4694 34.9626 14.6506 34.9138 14.8596C34.8651 15.0617 34.886 15.2847 34.9766 15.5146C35.0671 15.7446 35.1856 15.9815 35.3459 16.2184L38.5094 21.0752C38.6627 21.3121 38.8299 21.5211 38.9972 21.7023C39.1714 21.8835 39.3595 21.995 39.5686 22.0368C39.7776 22.0786 40.0076 22.0089 40.2723 21.8417L40.2793 21.8347Z" fill="black"/>
<path d="M47.5749 19.4586L42.8156 8.16325L45.7422 6.92989C46.5018 6.60935 47.1916 6.42121 47.8118 6.36547C48.425 6.30972 48.9755 6.43515 49.4493 6.74872C49.9231 7.06228 50.3273 7.6058 50.6548 8.37926C50.8499 8.84612 50.9823 9.27118 51.0589 9.66139C51.1286 10.0516 51.1216 10.4209 51.0311 10.7693C50.9405 11.1177 50.7523 11.4452 50.4527 11.7588L54.3339 16.6086L51.9787 17.5981L48.5295 13.027L47.7212 13.3684L49.8743 18.483L47.5749 19.4516V19.4586ZM47.1428 12.0097L47.8118 11.7309C48.1811 11.5707 48.4528 11.3895 48.6131 11.1804C48.7734 10.9714 48.85 10.7206 48.8361 10.4418C48.8222 10.1561 48.7385 9.8356 48.5852 9.47326C48.3692 8.95065 48.1044 8.59527 47.7978 8.40016C47.4912 8.20506 47.0801 8.21899 46.5575 8.435L45.7771 8.76251L47.1428 12.0097Z" fill="black"/>
<path d="M57.7761 15.5564L55.0655 3.6061L57.4974 3.05562L58.6401 8.10054L59.6505 2.56785L62.0127 2.0313L60.9884 7.9124L64.8836 13.9468L62.4308 14.5043L59.3718 9.56385L59.1418 10.3303L60.201 15.006L57.7691 15.5564H57.7761Z" fill="black"/>
</svg>
